solid OpenSCAD_Model
  facet normal 0 0 1
    outer loop
      vertex 0 38 10
      vertex -0.257441 34.0919 10
      vertex 0 34.0919 10
    endloop
  endfacet
  facet normal -0 0 1
    outer loop
      vertex -0.627672 37.9753 10
      vertex -0.257441 34.0919 10
      vertex 0 38 10
    endloop
  endfacet
  facet normal -0 0 1
    outer loop
      vertex -1.25148 37.9015 10
      vertex -0.257441 34.0919 10
      vertex -0.627672 37.9753 10
    endloop
  endfacet
  facet normal 0 0 1
    outer loop
      vertex -0.257441 34.0919 10
      vertex -1.25148 37.9015 10
      vertex -0.768263 34.0274 10
    endloop
  endfacet
  facet normal -0 0 1
    outer loop
      vertex -1.86756 37.779 10
      vertex -0.768263 34.0274 10
      vertex -1.25148 37.9015 10
    endloop
  endfacet
  facet normal 0 0 1
    outer loop
      vertex -0.768263 34.0274 10
      vertex -1.86756 37.779 10
      vertex -1.26697 33.8993 10
    endloop
  endfacet
  facet normal -0 0 1
    outer loop
      vertex -2.47214 37.6085 10
      vertex -1.26697 33.8993 10
      vertex -1.86756 37.779 10
    endloop
  endfacet
  facet normal -0 0 1
    outer loop
      vertex -3.06147 37.391 10
      vertex -1.26697 33.8993 10
      vertex -2.47214 37.6085 10
    endloop
  endfacet
  facet normal 0 0 1
    outer loop
      vertex -1.26697 33.8993 10
      vertex -3.06147 37.391 10
      vertex -1.74569 33.7098 10
    endloop
  endfacet
  facet normal -0 0 1
    outer loop
      vertex -3.63192 37.1281 10
      vertex -1.74569 33.7098 10
      vertex -3.06147 37.391 10
    endloop
  endfacet
  facet normal 0 0 1
    outer loop
      vertex -1.74569 33.7098 10
      vertex -3.63192 37.1281 10
      vertex -2.19689 33.4617 10
    endloop
  endfacet
  facet normal -0 0 1
    outer loop
      vertex -4.17999 36.8211 10
      vertex -2.19689 33.4617 10
      vertex -3.63192 37.1281 10
    endloop
  endfacet
  facet normal -0 0 1
    outer loop
      vertex -4.70228 36.4721 10
      vertex -2.19689 33.4617 10
      vertex -4.17999 36.8211 10
    endloop
  endfacet
  facet normal 0 0 1
    outer loop
      vertex -2.19689 33.4617 10
      vertex -4.70228 36.4721 10
      vertex -2.61344 33.1591 10
    endloop
  endfacet
  facet normal -0 0 1
    outer loop
      vertex -5.19558 36.0832 10
      vertex -2.61344 33.1591 10
      vertex -4.70228 36.4721 10
    endloop
  endfacet
  facet normal -0 0 1
    outer loop
      vertex -5.65685 35.6569 10
      vertex -2.61344 33.1591 10
      vertex -5.19558 36.0832 10
    endloop
  endfacet
  facet normal 0 0 1
    outer loop
      vertex -2.61344 33.1591 10
      vertex -5.65685 35.6569 10
      vertex -2.98877 32.8066 10
    endloop
  endfacet
  facet normal -0 0 1
    outer loop
      vertex -6.08325 35.1956 10
      vertex -2.98877 32.8066 10
      vertex -5.65685 35.6569 10
    endloop
  endfacet
  facet normal -0 0 1
    outer loop
      vertex -6.82112 34.18 10
      vertex -3.31697 32.4099 10
      vertex -6.47214 34.7023 10
    endloop
  endfacet
  facet normal -0 0 1
    outer loop
      vertex -6.47214 34.7023 10
      vertex -3.31697 32.4099 10
      vertex -6.08325 35.1956 10
    endloop
  endfacet
  facet normal 0 0 1
    outer loop
      vertex -2.98877 32.8066 10
      vertex -6.08325 35.1956 10
      vertex -3.31697 32.4099 10
    endloop
  endfacet
  facet normal -0 0 1
    outer loop
      vertex -0.257441 25.9081 10
      vertex 0 14.0919 10
      vertex 0 25.9081 10
    endloop
  endfacet
  facet normal 0 0 1
    outer loop
      vertex -0.257441 25.9081 10
      vertex -0.257441 14.0919 10
      vertex 0 14.0919 10
    endloop
  endfacet
  facet normal 0 0 1
    outer loop
      vertex -0.768263 25.9726 10
      vertex -0.257441 14.0919 10
      vertex -0.257441 25.9081 10
    endloop
  endfacet
  facet normal 0 0 1
    outer loop
      vertex -0.768263 25.9726 10
      vertex -0.768263 14.0274 10
      vertex -0.257441 14.0919 10
    endloop
  endfacet
  facet normal 0 0 1
    outer loop
      vertex -1.26697 26.1007 10
      vertex -0.768263 14.0274 10
      vertex -0.768263 25.9726 10
    endloop
  endfacet
  facet normal 0 0 1
    outer loop
      vertex -1.26697 26.1007 10
      vertex -1.26697 13.8993 10
      vertex -0.768263 14.0274 10
    endloop
  endfacet
  facet normal 0 0 1
    outer loop
      vertex -1.74569 26.2902 10
      vertex -1.26697 13.8993 10
      vertex -1.26697 26.1007 10
    endloop
  endfacet
  facet normal 0 0 1
    outer loop
      vertex -1.74569 26.2902 10
      vertex -1.74569 13.7098 10
      vertex -1.26697 13.8993 10
    endloop
  endfacet
  facet normal 0 0 1
    outer loop
      vertex -2.19689 26.5383 10
      vertex -1.74569 13.7098 10
      vertex -1.74569 26.2902 10
    endloop
  endfacet
  facet normal 0 0 1
    outer loop
      vertex -2.19689 26.5383 10
      vertex -2.19689 13.4617 10
      vertex -1.74569 13.7098 10
    endloop
  endfacet
  facet normal 0 0 1
    outer loop
      vertex -2.61344 26.8409 10
      vertex -2.19689 13.4617 10
      vertex -2.19689 26.5383 10
    endloop
  endfacet
  facet normal 0 0 1
    outer loop
      vertex -2.61344 26.8409 10
      vertex -2.61344 13.1591 10
      vertex -2.19689 13.4617 10
    endloop
  endfacet
  facet normal 0 0 1
    outer loop
      vertex -2.98877 27.1934 10
      vertex -2.61344 13.1591 10
      vertex -2.61344 26.8409 10
    endloop
  endfacet
  facet normal 0 0 1
    outer loop
      vertex -2.98877 27.1934 10
      vertex -2.98877 12.8066 10
      vertex -2.61344 13.1591 10
    endloop
  endfacet
  facet normal 0 0 1
    outer loop
      vertex -3.31697 27.5901 10
      vertex -2.98877 12.8066 10
      vertex -2.98877 27.1934 10
    endloop
  endfacet
  facet normal 0 0 1
    outer loop
      vertex -3.31697 27.5901 10
      vertex -3.31697 12.4099 10
      vertex -2.98877 12.8066 10
    endloop
  endfacet
  facet normal 0 0 1
    outer loop
      vertex -3.59286 28.0248 10
      vertex -3.31697 12.4099 10
      vertex -3.31697 27.5901 10
    endloop
  endfacet
  facet normal 0 0 1
    outer loop
      vertex -3.59286 28.0248 10
      vertex -3.59286 11.9752 10
      vertex -3.31697 12.4099 10
    endloop
  endfacet
  facet normal 0 0 1
    outer loop
      vertex -3.81208 28.4907 10
      vertex -3.59286 11.9752 10
      vertex -3.59286 28.0248 10
    endloop
  endfacet
  facet normal 0 0 1
    outer loop
      vertex -3.81208 28.4907 10
      vertex -3.81208 11.5093 10
      vertex -3.59286 11.9752 10
    endloop
  endfacet
  facet normal 0 0 1
    outer loop
      vertex -3.97119 28.9804 10
      vertex -3.81208 11.5093 10
      vertex -3.81208 28.4907 10
    endloop
  endfacet
  facet normal 0 0 1
    outer loop
      vertex -3.97119 28.9804 10
      vertex -3.97119 11.0196 10
      vertex -3.81208 11.5093 10
    endloop
  endfacet
  facet normal 0 0 1
    outer loop
      vertex -4.06767 29.4861 10
      vertex -3.97119 11.0196 10
      vertex -3.97119 28.9804 10
    endloop
  endfacet
  facet normal 0 0 1
    outer loop
      vertex -4.06767 29.4861 10
      vertex -4.06767 10.5139 10
      vertex -3.97119 11.0196 10
    endloop
  endfacet
  facet normal 0 0 1
    outer loop
      vertex -4.1 30 10
      vertex -4.06767 10.5139 10
      vertex -4.06767 29.4861 10
    endloop
  endfacet
  facet normal 0 0 1
    outer loop
      vertex -4.06767 10.5139 10
      vertex -4.1 30 10
      vertex -4.1 10 10
    endloop
  endfacet
  facet normal -0 0 1
    outer loop
      vertex -0.257441 5.90809 10
      vertex 0 2 10
      vertex 0 5.90809 10
    endloop
  endfacet
  facet normal 0 0 1
    outer loop
      vertex -0.257441 5.90809 10
      vertex -0.627672 2.02466 10
      vertex 0 2 10
    endloop
  endfacet
  facet normal 0 0 1
    outer loop
      vertex -1.25148 2.09849 10
      vertex -0.257441 5.90809 10
      vertex -0.768263 5.97262 10
    endloop
  endfacet
  facet normal 0 0 1
    outer loop
      vertex -0.257441 5.90809 10
      vertex -1.25148 2.09849 10
      vertex -0.627672 2.02466 10
    endloop
  endfacet
  facet normal 0 0 1
    outer loop
      vertex -1.86756 2.22104 10
      vertex -0.768263 5.97262 10
      vertex -1.26697 6.10067 10
    endloop
  endfacet
  facet normal 0 0 1
    outer loop
      vertex -3.06147 2.60896 10
      vertex -1.26697 6.10067 10
      vertex -1.74569 6.29021 10
    endloop
  endfacet
  facet normal 0 0 1
    outer loop
      vertex -0.768263 5.97262 10
      vertex -1.86756 2.22104 10
      vertex -1.25148 2.09849 10
    endloop
  endfacet
  facet normal 0 0 1
    outer loop
      vertex -3.63192 2.87195 10
      vertex -1.74569 6.29021 10
      vertex -2.19689 6.53825 10
    endloop
  endfacet
  facet normal 0 0 1
    outer loop
      vertex -1.26697 6.10067 10
      vertex -2.47214 2.39155 10
      vertex -1.86756 2.22104 10
    endloop
  endfacet
  facet normal 0 0 1
    outer loop
      vertex -4.70228 3.52786 10
      vertex -2.19689 6.53825 10
      vertex -2.61344 6.8409 10
    endloop
  endfacet
  facet normal 0 0 1
    outer loop
      vertex -5.65685 4.34315 10
      vertex -2.61344 6.8409 10
      vertex -2.98877 7.19336 10
    endloop
  endfacet
  facet normal 0 0 1
    outer loop
      vertex -1.26697 6.10067 10
      vertex -3.06147 2.60896 10
      vertex -2.47214 2.39155 10
    endloop
  endfacet
  facet normal 0 0 1
    outer loop
      vertex -6.08325 4.80441 10
      vertex -2.98877 7.19336 10
      vertex -3.31697 7.59008 10
    endloop
  endfacet
  facet normal 0 0 1
    outer loop
      vertex -6.82112 5.82001 10
      vertex -3.31697 7.59008 10
      vertex -3.59286 8.02481 10
    endloop
  endfacet
  facet normal 0 0 1
    outer loop
      vertex -1.74569 6.29021 10
      vertex -3.63192 2.87195 10
      vertex -3.06147 2.60896 10
    endloop
  endfacet
  facet normal 0 0 1
    outer loop
      vertex -7.12805 6.36808 10
      vertex -3.59286 8.02481 10
      vertex -3.81208 8.49069 10
    endloop
  endfacet
  facet normal 0 0 1
    outer loop
      vertex -7.60845 7.52786 10
      vertex -3.81208 8.49069 10
      vertex -3.97119 8.98037 10
    endloop
  endfacet
  facet normal 0 0 1
    outer loop
      vertex -7.90151 8.74852 10
      vertex -3.97119 8.98037 10
      vertex -4.06767 9.48613 10
    endloop
  endfacet
  facet normal 0 0 1
    outer loop
      vertex -2.19689 6.53825 10
      vertex -4.17999 3.17888 10
      vertex -3.63192 2.87195 10
    endloop
  endfacet
  facet normal 0 0 1
    outer loop
      vertex -7.97534 9.37233 10
      vertex -4.06767 9.48613 10
      vertex -4.1 10 10
    endloop
  endfacet
  facet normal 0 0 1
    outer loop
      vertex -4.1 30 10
      vertex -8 30 10
      vertex -4.1 10 10
    endloop
  endfacet
  facet normal 0 0 1
    outer loop
      vertex -3.31697 32.4099 10
      vertex -6.82112 34.18 10
      vertex -3.59286 31.9752 10
    endloop
  endfacet
  facet normal 0 0 1
    outer loop
      vertex -8 10 10
      vertex -4.1 10 10
      vertex -8 30 10
    endloop
  endfacet
  facet normal -0 0 1
    outer loop
      vertex -7.12805 33.6319 10
      vertex -3.59286 31.9752 10
      vertex -6.82112 34.18 10
    endloop
  endfacet
  facet normal 0 -0 1
    outer loop
      vertex -7.97534 9.37233 10
      vertex -4.1 10 10
      vertex -8 10 10
    endloop
  endfacet
  facet normal 0 0 1
    outer loop
      vertex -3.59286 31.9752 10
      vertex -7.12805 33.6319 10
      vertex -3.81208 31.5093 10
    endloop
  endfacet
  facet normal 0 0 1
    outer loop
      vertex -2.19689 6.53825 10
      vertex -4.70228 3.52786 10
      vertex -4.17999 3.17888 10
    endloop
  endfacet
  facet normal -0 0 1
    outer loop
      vertex -7.39104 33.0615 10
      vertex -3.81208 31.5093 10
      vertex -7.12805 33.6319 10
    endloop
  endfacet
  facet normal 0 0 1
    outer loop
      vertex -2.61344 6.8409 10
      vertex -5.19558 3.91675 10
      vertex -4.70228 3.52786 10
    endloop
  endfacet
  facet normal -0 0 1
    outer loop
      vertex -7.60845 32.4721 10
      vertex -3.81208 31.5093 10
      vertex -7.39104 33.0615 10
    endloop
  endfacet
  facet normal 0 0 1
    outer loop
      vertex -2.61344 6.8409 10
      vertex -5.65685 4.34315 10
      vertex -5.19558 3.91675 10
    endloop
  endfacet
  facet normal 0 0 1
    outer loop
      vertex -3.81208 31.5093 10
      vertex -7.60845 32.4721 10
      vertex -3.97119 31.0196 10
    endloop
  endfacet
  facet normal 0 0 1
    outer loop
      vertex -2.98877 7.19336 10
      vertex -6.08325 4.80441 10
      vertex -5.65685 4.34315 10
    endloop
  endfacet
  facet normal -0 0 1
    outer loop
      vertex -7.77896 31.8676 10
      vertex -3.97119 31.0196 10
      vertex -7.60845 32.4721 10
    endloop
  endfacet
  facet normal 0 0 1
    outer loop
      vertex -3.31697 7.59008 10
      vertex -6.47214 5.29772 10
      vertex -6.08325 4.80441 10
    endloop
  endfacet
  facet normal -0 0 1
    outer loop
      vertex -7.90151 31.2515 10
      vertex -3.97119 31.0196 10
      vertex -7.77896 31.8676 10
    endloop
  endfacet
  facet normal 0 0 1
    outer loop
      vertex -3.31697 7.59008 10
      vertex -6.82112 5.82001 10
      vertex -6.47214 5.29772 10
    endloop
  endfacet
  facet normal 0 0 1
    outer loop
      vertex -3.97119 31.0196 10
      vertex -7.90151 31.2515 10
      vertex -4.06767 30.5139 10
    endloop
  endfacet
  facet normal 0 0 1
    outer loop
      vertex -3.59286 8.02481 10
      vertex -7.12805 6.36808 10
      vertex -6.82112 5.82001 10
    endloop
  endfacet
  facet normal -0 0 1
    outer loop
      vertex -7.97534 30.6277 10
      vertex -4.06767 30.5139 10
      vertex -7.90151 31.2515 10
    endloop
  endfacet
  facet normal 0 0 1
    outer loop
      vertex -3.81208 8.49069 10
      vertex -7.39104 6.93853 10
      vertex -7.12805 6.36808 10
    endloop
  endfacet
  facet normal 0 0 1
    outer loop
      vertex -4.06767 30.5139 10
      vertex -7.97534 30.6277 10
      vertex -4.1 30 10
    endloop
  endfacet
  facet normal 0 0 1
    outer loop
      vertex -3.81208 8.49069 10
      vertex -7.60845 7.52786 10
      vertex -7.39104 6.93853 10
    endloop
  endfacet
  facet normal 0 0 1
    outer loop
      vertex -4.1 30 10
      vertex -7.97534 30.6277 10
      vertex -8 30 10
    endloop
  endfacet
  facet normal 0 0 1
    outer loop
      vertex -3.97119 8.98037 10
      vertex -7.77896 8.13244 10
      vertex -7.60845 7.52786 10
    endloop
  endfacet
  facet normal 0 0 1
    outer loop
      vertex -3.97119 8.98037 10
      vertex -7.90151 8.74852 10
      vertex -7.77896 8.13244 10
    endloop
  endfacet
  facet normal 0 0 1
    outer loop
      vertex -4.06767 9.48613 10
      vertex -7.97534 9.37233 10
      vertex -7.90151 8.74852 10
    endloop
  endfacet
  facet normal 0 0 -1
    outer loop
      vertex 0 2 0
      vertex -0.257441 5.90809 0
      vertex 0 5.90809 0
    endloop
  endfacet
  facet normal 0 0 -1
    outer loop
      vertex -0.627672 2.02466 0
      vertex -0.257441 5.90809 0
      vertex 0 2 0
    endloop
  endfacet
  facet normal 0 0 -1
    outer loop
      vertex -1.25148 2.09849 0
      vertex -0.257441 5.90809 0
      vertex -0.627672 2.02466 0
    endloop
  endfacet
  facet normal -0 0 -1
    outer loop
      vertex -0.257441 5.90809 0
      vertex -1.25148 2.09849 0
      vertex -0.768263 5.97262 0
    endloop
  endfacet
  facet normal 0 0 -1
    outer loop
      vertex -1.86756 2.22104 0
      vertex -0.768263 5.97262 0
      vertex -1.25148 2.09849 0
    endloop
  endfacet
  facet normal -0 0 -1
    outer loop
      vertex -0.768263 5.97262 0
      vertex -1.86756 2.22104 0
      vertex -1.26697 6.10067 0
    endloop
  endfacet
  facet normal 0 0 -1
    outer loop
      vertex -2.47214 2.39155 0
      vertex -1.26697 6.10067 0
      vertex -1.86756 2.22104 0
    endloop
  endfacet
  facet normal 0 0 -1
    outer loop
      vertex -3.06147 2.60896 0
      vertex -1.26697 6.10067 0
      vertex -2.47214 2.39155 0
    endloop
  endfacet
  facet normal -0 0 -1
    outer loop
      vertex -1.26697 6.10067 0
      vertex -3.06147 2.60896 0
      vertex -1.74569 6.29021 0
    endloop
  endfacet
  facet normal 0 0 -1
    outer loop
      vertex -3.63192 2.87195 0
      vertex -1.74569 6.29021 0
      vertex -3.06147 2.60896 0
    endloop
  endfacet
  facet normal -0 0 -1
    outer loop
      vertex -1.74569 6.29021 0
      vertex -3.63192 2.87195 0
      vertex -2.19689 6.53825 0
    endloop
  endfacet
  facet normal 0 0 -1
    outer loop
      vertex -4.17999 3.17888 0
      vertex -2.19689 6.53825 0
      vertex -3.63192 2.87195 0
    endloop
  endfacet
  facet normal 0 0 -1
    outer loop
      vertex -4.70228 3.52786 0
      vertex -2.19689 6.53825 0
      vertex -4.17999 3.17888 0
    endloop
  endfacet
  facet normal -0 0 -1
    outer loop
      vertex -2.19689 6.53825 0
      vertex -4.70228 3.52786 0
      vertex -2.61344 6.8409 0
    endloop
  endfacet
  facet normal 0 0 -1
    outer loop
      vertex -5.19558 3.91675 0
      vertex -2.61344 6.8409 0
      vertex -4.70228 3.52786 0
    endloop
  endfacet
  facet normal 0 0 -1
    outer loop
      vertex -5.65685 4.34315 0
      vertex -2.61344 6.8409 0
      vertex -5.19558 3.91675 0
    endloop
  endfacet
  facet normal -0 0 -1
    outer loop
      vertex -2.61344 6.8409 0
      vertex -5.65685 4.34315 0
      vertex -2.98877 7.19336 0
    endloop
  endfacet
  facet normal 0 0 -1
    outer loop
      vertex -6.08325 4.80441 0
      vertex -2.98877 7.19336 0
      vertex -5.65685 4.34315 0
    endloop
  endfacet
  facet normal 0 0 -1
    outer loop
      vertex -6.82112 5.82001 0
      vertex -3.31697 7.59008 0
      vertex -6.47214 5.29772 0
    endloop
  endfacet
  facet normal 0 0 -1
    outer loop
      vertex -6.47214 5.29772 0
      vertex -3.31697 7.59008 0
      vertex -6.08325 4.80441 0
    endloop
  endfacet
  facet normal -0 0 -1
    outer loop
      vertex -2.98877 7.19336 0
      vertex -6.08325 4.80441 0
      vertex -3.31697 7.59008 0
    endloop
  endfacet
  facet normal 0 0 -1
    outer loop
      vertex -0.257441 14.0919 0
      vertex 0 25.9081 0
      vertex 0 14.0919 0
    endloop
  endfacet
  facet normal 0 0 -1
    outer loop
      vertex -0.257441 14.0919 0
      vertex -0.257441 25.9081 0
      vertex 0 25.9081 0
    endloop
  endfacet
  facet normal 0 0 -1
    outer loop
      vertex -0.768263 14.0274 0
      vertex -0.257441 25.9081 0
      vertex -0.257441 14.0919 0
    endloop
  endfacet
  facet normal 0 0 -1
    outer loop
      vertex -0.768263 14.0274 0
      vertex -0.768263 25.9726 0
      vertex -0.257441 25.9081 0
    endloop
  endfacet
  facet normal 0 0 -1
    outer loop
      vertex -1.26697 13.8993 0
      vertex -0.768263 25.9726 0
      vertex -0.768263 14.0274 0
    endloop
  endfacet
  facet normal 0 0 -1
    outer loop
      vertex -1.26697 13.8993 0
      vertex -1.26697 26.1007 0
      vertex -0.768263 25.9726 0
    endloop
  endfacet
  facet normal 0 0 -1
    outer loop
      vertex -1.74569 13.7098 0
      vertex -1.26697 26.1007 0
      vertex -1.26697 13.8993 0
    endloop
  endfacet
  facet normal 0 0 -1
    outer loop
      vertex -1.74569 13.7098 0
      vertex -1.74569 26.2902 0
      vertex -1.26697 26.1007 0
    endloop
  endfacet
  facet normal 0 0 -1
    outer loop
      vertex -2.19689 13.4617 0
      vertex -1.74569 26.2902 0
      vertex -1.74569 13.7098 0
    endloop
  endfacet
  facet normal 0 0 -1
    outer loop
      vertex -2.19689 13.4617 0
      vertex -2.19689 26.5383 0
      vertex -1.74569 26.2902 0
    endloop
  endfacet
  facet normal 0 0 -1
    outer loop
      vertex -2.61344 13.1591 0
      vertex -2.19689 26.5383 0
      vertex -2.19689 13.4617 0
    endloop
  endfacet
  facet normal 0 0 -1
    outer loop
      vertex -2.61344 13.1591 0
      vertex -2.61344 26.8409 0
      vertex -2.19689 26.5383 0
    endloop
  endfacet
  facet normal 0 0 -1
    outer loop
      vertex -2.98877 12.8066 0
      vertex -2.61344 26.8409 0
      vertex -2.61344 13.1591 0
    endloop
  endfacet
  facet normal 0 0 -1
    outer loop
      vertex -2.98877 12.8066 0
      vertex -2.98877 27.1934 0
      vertex -2.61344 26.8409 0
    endloop
  endfacet
  facet normal 0 0 -1
    outer loop
      vertex -3.31697 12.4099 0
      vertex -2.98877 27.1934 0
      vertex -2.98877 12.8066 0
    endloop
  endfacet
  facet normal 0 0 -1
    outer loop
      vertex -3.31697 12.4099 0
      vertex -3.31697 27.5901 0
      vertex -2.98877 27.1934 0
    endloop
  endfacet
  facet normal 0 0 -1
    outer loop
      vertex -3.59286 11.9752 0
      vertex -3.31697 27.5901 0
      vertex -3.31697 12.4099 0
    endloop
  endfacet
  facet normal 0 0 -1
    outer loop
      vertex -3.59286 11.9752 0
      vertex -3.59286 28.0248 0
      vertex -3.31697 27.5901 0
    endloop
  endfacet
  facet normal 0 0 -1
    outer loop
      vertex -3.81208 11.5093 0
      vertex -3.59286 28.0248 0
      vertex -3.59286 11.9752 0
    endloop
  endfacet
  facet normal 0 0 -1
    outer loop
      vertex -3.81208 11.5093 0
      vertex -3.81208 28.4907 0
      vertex -3.59286 28.0248 0
    endloop
  endfacet
  facet normal 0 0 -1
    outer loop
      vertex -3.97119 11.0196 0
      vertex -3.81208 28.4907 0
      vertex -3.81208 11.5093 0
    endloop
  endfacet
  facet normal 0 0 -1
    outer loop
      vertex -3.97119 11.0196 0
      vertex -3.97119 28.9804 0
      vertex -3.81208 28.4907 0
    endloop
  endfacet
  facet normal 0 0 -1
    outer loop
      vertex -4.06767 10.5139 0
      vertex -3.97119 28.9804 0
      vertex -3.97119 11.0196 0
    endloop
  endfacet
  facet normal 0 0 -1
    outer loop
      vertex -4.06767 10.5139 0
      vertex -4.06767 29.4861 0
      vertex -3.97119 28.9804 0
    endloop
  endfacet
  facet normal 0 0 -1
    outer loop
      vertex -4.1 10 0
      vertex -4.06767 29.4861 0
      vertex -4.06767 10.5139 0
    endloop
  endfacet
  facet normal -0 0 -1
    outer loop
      vertex -4.06767 29.4861 0
      vertex -4.1 10 0
      vertex -4.1 30 0
    endloop
  endfacet
  facet normal 0 0 -1
    outer loop
      vertex -0.257441 34.0919 0
      vertex 0 38 0
      vertex 0 34.0919 0
    endloop
  endfacet
  facet normal 0 0 -1
    outer loop
      vertex -0.257441 34.0919 0
      vertex -0.627672 37.9753 0
      vertex 0 38 0
    endloop
  endfacet
  facet normal 0 0 -1
    outer loop
      vertex -1.25148 37.9015 0
      vertex -0.257441 34.0919 0
      vertex -0.768263 34.0274 0
    endloop
  endfacet
  facet normal 0 0 -1
    outer loop
      vertex -0.257441 34.0919 0
      vertex -1.25148 37.9015 0
      vertex -0.627672 37.9753 0
    endloop
  endfacet
  facet normal 0 0 -1
    outer loop
      vertex -1.86756 37.779 0
      vertex -0.768263 34.0274 0
      vertex -1.26697 33.8993 0
    endloop
  endfacet
  facet normal 0 0 -1
    outer loop
      vertex -3.06147 37.391 0
      vertex -1.26697 33.8993 0
      vertex -1.74569 33.7098 0
    endloop
  endfacet
  facet normal 0 0 -1
    outer loop
      vertex -0.768263 34.0274 0
      vertex -1.86756 37.779 0
      vertex -1.25148 37.9015 0
    endloop
  endfacet
  facet normal 0 0 -1
    outer loop
      vertex -3.63192 37.1281 0
      vertex -1.74569 33.7098 0
      vertex -2.19689 33.4617 0
    endloop
  endfacet
  facet normal 0 0 -1
    outer loop
      vertex -1.26697 33.8993 0
      vertex -2.47214 37.6085 0
      vertex -1.86756 37.779 0
    endloop
  endfacet
  facet normal 0 0 -1
    outer loop
      vertex -4.70228 36.4721 0
      vertex -2.19689 33.4617 0
      vertex -2.61344 33.1591 0
    endloop
  endfacet
  facet normal 0 0 -1
    outer loop
      vertex -5.65685 35.6569 0
      vertex -2.61344 33.1591 0
      vertex -2.98877 32.8066 0
    endloop
  endfacet
  facet normal 0 0 -1
    outer loop
      vertex -1.26697 33.8993 0
      vertex -3.06147 37.391 0
      vertex -2.47214 37.6085 0
    endloop
  endfacet
  facet normal 0 0 -1
    outer loop
      vertex -6.08325 35.1956 0
      vertex -2.98877 32.8066 0
      vertex -3.31697 32.4099 0
    endloop
  endfacet
  facet normal 0 0 -1
    outer loop
      vertex -6.82112 34.18 0
      vertex -3.31697 32.4099 0
      vertex -3.59286 31.9752 0
    endloop
  endfacet
  facet normal 0 0 -1
    outer loop
      vertex -1.74569 33.7098 0
      vertex -3.63192 37.1281 0
      vertex -3.06147 37.391 0
    endloop
  endfacet
  facet normal 0 0 -1
    outer loop
      vertex -7.12805 33.6319 0
      vertex -3.59286 31.9752 0
      vertex -3.81208 31.5093 0
    endloop
  endfacet
  facet normal 0 0 -1
    outer loop
      vertex -7.60845 32.4721 0
      vertex -3.81208 31.5093 0
      vertex -3.97119 31.0196 0
    endloop
  endfacet
  facet normal 0 0 -1
    outer loop
      vertex -7.90151 31.2515 0
      vertex -3.97119 31.0196 0
      vertex -4.06767 30.5139 0
    endloop
  endfacet
  facet normal 0 0 -1
    outer loop
      vertex -2.19689 33.4617 0
      vertex -4.17999 36.8211 0
      vertex -3.63192 37.1281 0
    endloop
  endfacet
  facet normal 0 0 -1
    outer loop
      vertex -7.97534 30.6277 0
      vertex -4.06767 30.5139 0
      vertex -4.1 30 0
    endloop
  endfacet
  facet normal 0 0 -1
    outer loop
      vertex -4.1 10 0
      vertex -8 10 0
      vertex -4.1 30 0
    endloop
  endfacet
  facet normal -0 0 -1
    outer loop
      vertex -3.31697 7.59008 0
      vertex -6.82112 5.82001 0
      vertex -3.59286 8.02481 0
    endloop
  endfacet
  facet normal 0 0 -1
    outer loop
      vertex -8 30 0
      vertex -4.1 30 0
      vertex -8 10 0
    endloop
  endfacet
  facet normal 0 0 -1
    outer loop
      vertex -7.12805 6.36808 0
      vertex -3.59286 8.02481 0
      vertex -6.82112 5.82001 0
    endloop
  endfacet
  facet normal 0 -0 -1
    outer loop
      vertex -7.97534 30.6277 0
      vertex -4.1 30 0
      vertex -8 30 0
    endloop
  endfacet
  facet normal -0 0 -1
    outer loop
      vertex -3.59286 8.02481 0
      vertex -7.12805 6.36808 0
      vertex -3.81208 8.49069 0
    endloop
  endfacet
  facet normal 0 0 -1
    outer loop
      vertex -2.19689 33.4617 0
      vertex -4.70228 36.4721 0
      vertex -4.17999 36.8211 0
    endloop
  endfacet
  facet normal 0 0 -1
    outer loop
      vertex -7.39104 6.93853 0
      vertex -3.81208 8.49069 0
      vertex -7.12805 6.36808 0
    endloop
  endfacet
  facet normal 0 0 -1
    outer loop
      vertex -2.61344 33.1591 0
      vertex -5.19558 36.0832 0
      vertex -4.70228 36.4721 0
    endloop
  endfacet
  facet normal 0 0 -1
    outer loop
      vertex -7.60845 7.52786 0
      vertex -3.81208 8.49069 0
      vertex -7.39104 6.93853 0
    endloop
  endfacet
  facet normal 0 0 -1
    outer loop
      vertex -2.61344 33.1591 0
      vertex -5.65685 35.6569 0
      vertex -5.19558 36.0832 0
    endloop
  endfacet
  facet normal -0 0 -1
    outer loop
      vertex -3.81208 8.49069 0
      vertex -7.60845 7.52786 0
      vertex -3.97119 8.98037 0
    endloop
  endfacet
  facet normal 0 0 -1
    outer loop
      vertex -2.98877 32.8066 0
      vertex -6.08325 35.1956 0
      vertex -5.65685 35.6569 0
    endloop
  endfacet
  facet normal 0 0 -1
    outer loop
      vertex -7.77896 8.13244 0
      vertex -3.97119 8.98037 0
      vertex -7.60845 7.52786 0
    endloop
  endfacet
  facet normal 0 0 -1
    outer loop
      vertex -3.31697 32.4099 0
      vertex -6.47214 34.7023 0
      vertex -6.08325 35.1956 0
    endloop
  endfacet
  facet normal 0 0 -1
    outer loop
      vertex -7.90151 8.74852 0
      vertex -3.97119 8.98037 0
      vertex -7.77896 8.13244 0
    endloop
  endfacet
  facet normal 0 0 -1
    outer loop
      vertex -3.31697 32.4099 0
      vertex -6.82112 34.18 0
      vertex -6.47214 34.7023 0
    endloop
  endfacet
  facet normal -0 0 -1
    outer loop
      vertex -3.97119 8.98037 0
      vertex -7.90151 8.74852 0
      vertex -4.06767 9.48613 0
    endloop
  endfacet
  facet normal 0 0 -1
    outer loop
      vertex -3.59286 31.9752 0
      vertex -7.12805 33.6319 0
      vertex -6.82112 34.18 0
    endloop
  endfacet
  facet normal 0 0 -1
    outer loop
      vertex -7.97534 9.37233 0
      vertex -4.06767 9.48613 0
      vertex -7.90151 8.74852 0
    endloop
  endfacet
  facet normal 0 0 -1
    outer loop
      vertex -3.81208 31.5093 0
      vertex -7.39104 33.0615 0
      vertex -7.12805 33.6319 0
    endloop
  endfacet
  facet normal -0 0 -1
    outer loop
      vertex -4.06767 9.48613 0
      vertex -7.97534 9.37233 0
      vertex -4.1 10 0
    endloop
  endfacet
  facet normal 0 0 -1
    outer loop
      vertex -3.81208 31.5093 0
      vertex -7.60845 32.4721 0
      vertex -7.39104 33.0615 0
    endloop
  endfacet
  facet normal -0 0 -1
    outer loop
      vertex -4.1 10 0
      vertex -7.97534 9.37233 0
      vertex -8 10 0
    endloop
  endfacet
  facet normal 0 0 -1
    outer loop
      vertex -3.97119 31.0196 0
      vertex -7.77896 31.8676 0
      vertex -7.60845 32.4721 0
    endloop
  endfacet
  facet normal 0 0 -1
    outer loop
      vertex -3.97119 31.0196 0
      vertex -7.90151 31.2515 0
      vertex -7.77896 31.8676 0
    endloop
  endfacet
  facet normal 0 0 -1
    outer loop
      vertex -4.06767 30.5139 0
      vertex -7.97534 30.6277 0
      vertex -7.90151 31.2515 0
    endloop
  endfacet
  facet normal -0.418671 -0.908138 0
    outer loop
      vertex -3.63192 2.87195 0
      vertex -3.06147 2.60896 10
      vertex -3.63192 2.87195 10
    endloop
  endfacet
  facet normal -0.418671 -0.908138 -0
    outer loop
      vertex -3.06147 2.60896 10
      vertex -3.63192 2.87195 0
      vertex -3.06147 2.60896 0
    endloop
  endfacet
  facet normal -0.0392577 -0.999229 0
    outer loop
      vertex -0.627672 2.02466 0
      vertex 0 2 10
      vertex -0.627672 2.02466 10
    endloop
  endfacet
  facet normal -0.0392577 -0.999229 -0
    outer loop
      vertex 0 2 10
      vertex -0.627672 2.02466 0
      vertex 0 2 0
    endloop
  endfacet
  facet normal -0.908138 -0.418671 0
    outer loop
      vertex -7.12805 6.36808 0
      vertex -7.39104 6.93853 10
      vertex -7.39104 6.93853 0
    endloop
  endfacet
  facet normal -0.908138 -0.418671 0
    outer loop
      vertex -7.39104 6.93853 10
      vertex -7.12805 6.36808 0
      vertex -7.12805 6.36808 10
    endloop
  endfacet
  facet normal -0.195097 -0.980784 0
    outer loop
      vertex -1.86756 2.22104 0
      vertex -1.25148 2.09849 10
      vertex -1.86756 2.22104 10
    endloop
  endfacet
  facet normal -0.195097 -0.980784 -0
    outer loop
      vertex -1.25148 2.09849 10
      vertex -1.86756 2.22104 0
      vertex -1.25148 2.09849 0
    endloop
  endfacet
  facet normal -0.962455 -0.271442 0
    outer loop
      vertex -7.60845 7.52786 0
      vertex -7.77896 8.13244 10
      vertex -7.77896 8.13244 0
    endloop
  endfacet
  facet normal -0.962455 -0.271442 0
    outer loop
      vertex -7.77896 8.13244 10
      vertex -7.60845 7.52786 0
      vertex -7.60845 7.52786 10
    endloop
  endfacet
  facet normal -0.78532 -0.61909 0
    outer loop
      vertex -6.08325 4.80441 0
      vertex -6.47214 5.29772 10
      vertex -6.47214 5.29772 0
    endloop
  endfacet
  facet normal -0.78532 -0.61909 0
    outer loop
      vertex -6.47214 5.29772 10
      vertex -6.08325 4.80441 0
      vertex -6.08325 4.80441 10
    endloop
  endfacet
  facet normal -0.938194 -0.34611 0
    outer loop
      vertex -7.39104 6.93853 0
      vertex -7.60845 7.52786 10
      vertex -7.60845 7.52786 0
    endloop
  endfacet
  facet normal -0.938194 -0.34611 0
    outer loop
      vertex -7.60845 7.52786 10
      vertex -7.39104 6.93853 0
      vertex -7.39104 6.93853 10
    endloop
  endfacet
  facet normal -0.117533 -0.993069 0
    outer loop
      vertex -1.25148 2.09849 0
      vertex -0.627672 2.02466 10
      vertex -1.25148 2.09849 10
    endloop
  endfacet
  facet normal -0.117533 -0.993069 -0
    outer loop
      vertex -0.627672 2.02466 10
      vertex -1.25148 2.09849 0
      vertex -0.627672 2.02466 0
    endloop
  endfacet
  facet normal -0.271442 -0.962455 0
    outer loop
      vertex -2.47214 2.39155 0
      vertex -1.86756 2.22104 10
      vertex -2.47214 2.39155 10
    endloop
  endfacet
  facet normal -0.271442 -0.962455 -0
    outer loop
      vertex -1.86756 2.22104 10
      vertex -2.47214 2.39155 0
      vertex -1.86756 2.22104 0
    endloop
  endfacet
  facet normal -0.831472 -0.555567 0
    outer loop
      vertex -6.47214 5.29772 0
      vertex -6.82112 5.82001 10
      vertex -6.82112 5.82001 0
    endloop
  endfacet
  facet normal -0.831472 -0.555567 0
    outer loop
      vertex -6.82112 5.82001 10
      vertex -6.47214 5.29772 0
      vertex -6.47214 5.29772 10
    endloop
  endfacet
  facet normal -0.872499 -0.488616 0
    outer loop
      vertex -6.82112 5.82001 0
      vertex -7.12805 6.36808 10
      vertex -7.12805 6.36808 0
    endloop
  endfacet
  facet normal -0.872499 -0.488616 0
    outer loop
      vertex -7.12805 6.36808 10
      vertex -6.82112 5.82001 0
      vertex -6.82112 5.82001 10
    endloop
  endfacet
  facet normal -0.993069 -0.117533 0
    outer loop
      vertex -7.90151 8.74852 0
      vertex -7.97534 9.37233 10
      vertex -7.97534 9.37233 0
    endloop
  endfacet
  facet normal -0.993069 -0.117533 0
    outer loop
      vertex -7.97534 9.37233 10
      vertex -7.90151 8.74852 0
      vertex -7.90151 8.74852 10
    endloop
  endfacet
  facet normal -0.555567 -0.831472 0
    outer loop
      vertex -4.70228 3.52786 0
      vertex -4.17999 3.17888 10
      vertex -4.70228 3.52786 10
    endloop
  endfacet
  facet normal -0.555567 -0.831472 -0
    outer loop
      vertex -4.17999 3.17888 10
      vertex -4.70228 3.52786 0
      vertex -4.17999 3.17888 0
    endloop
  endfacet
  facet normal -0.619098 -0.785314 0
    outer loop
      vertex -5.19558 3.91675 0
      vertex -4.70228 3.52786 10
      vertex -5.19558 3.91675 10
    endloop
  endfacet
  facet normal -0.619098 -0.785314 -0
    outer loop
      vertex -4.70228 3.52786 10
      vertex -5.19558 3.91675 0
      vertex -4.70228 3.52786 0
    endloop
  endfacet
  facet normal -0.980784 -0.195097 0
    outer loop
      vertex -7.77896 8.13244 0
      vertex -7.90151 8.74852 10
      vertex -7.90151 8.74852 0
    endloop
  endfacet
  facet normal -0.980784 -0.195097 0
    outer loop
      vertex -7.90151 8.74852 10
      vertex -7.77896 8.13244 0
      vertex -7.77896 8.13244 10
    endloop
  endfacet
  facet normal -0.678806 -0.734317 0
    outer loop
      vertex -5.65685 4.34315 0
      vertex -5.19558 3.91675 10
      vertex -5.65685 4.34315 10
    endloop
  endfacet
  facet normal -0.678806 -0.734317 -0
    outer loop
      vertex -5.19558 3.91675 10
      vertex -5.65685 4.34315 0
      vertex -5.19558 3.91675 0
    endloop
  endfacet
  facet normal -0.999229 -0.0392579 0
    outer loop
      vertex -7.97534 9.37233 0
      vertex -8 10 10
      vertex -8 10 0
    endloop
  endfacet
  facet normal -0.999229 -0.0392579 0
    outer loop
      vertex -8 10 10
      vertex -7.97534 9.37233 0
      vertex -7.97534 9.37233 10
    endloop
  endfacet
  facet normal -0.73431 -0.678814 0
    outer loop
      vertex -5.65685 4.34315 0
      vertex -6.08325 4.80441 10
      vertex -6.08325 4.80441 0
    endloop
  endfacet
  facet normal -0.73431 -0.678814 0
    outer loop
      vertex -6.08325 4.80441 10
      vertex -5.65685 4.34315 0
      vertex -5.65685 4.34315 10
    endloop
  endfacet
  facet normal -0.488616 -0.872499 0
    outer loop
      vertex -4.17999 3.17888 0
      vertex -3.63192 2.87195 10
      vertex -4.17999 3.17888 10
    endloop
  endfacet
  facet normal -0.488616 -0.872499 -0
    outer loop
      vertex -3.63192 2.87195 10
      vertex -4.17999 3.17888 0
      vertex -3.63192 2.87195 0
    endloop
  endfacet
  facet normal -0.34611 -0.938194 0
    outer loop
      vertex -3.06147 2.60896 0
      vertex -2.47214 2.39155 10
      vertex -3.06147 2.60896 10
    endloop
  endfacet
  facet normal -0.34611 -0.938194 -0
    outer loop
      vertex -2.47214 2.39155 10
      vertex -3.06147 2.60896 0
      vertex -2.47214 2.39155 0
    endloop
  endfacet
  facet normal -1 0 0
    outer loop
      vertex -8 30 0
      vertex -8 23.4808 4.63415
      vertex -8 30 10
    endloop
  endfacet
  facet normal -1 0 0
    outer loop
      vertex -8 30 0
      vertex -8 23.3287 3.91844
      vertex -8 23.4808 4.63415
    endloop
  endfacet
  facet normal -1 0 0
    outer loop
      vertex -8 30 0
      vertex -8 23.0311 3.25
      vertex -8 23.3287 3.91844
    endloop
  endfacet
  facet normal -1 0 0
    outer loop
      vertex -8 30 0
      vertex -8 22.601 2.65804
      vertex -8 23.0311 3.25
    endloop
  endfacet
  facet normal -1 0 0
    outer loop
      vertex -8 30 0
      vertex -8 22.0572 2.16844
      vertex -8 22.601 2.65804
    endloop
  endfacet
  facet normal -1 0 0
    outer loop
      vertex -8 30 0
      vertex -8 21.4236 1.80259
      vertex -8 22.0572 2.16844
    endloop
  endfacet
  facet normal -1 0 0
    outer loop
      vertex -8 30 0
      vertex -8 20.7277 1.57648
      vertex -8 21.4236 1.80259
    endloop
  endfacet
  facet normal -1 0 0
    outer loop
      vertex -8 30 0
      vertex -8 20 1.5
      vertex -8 20.7277 1.57648
    endloop
  endfacet
  facet normal -1 0 0
    outer loop
      vertex -8 10 0
      vertex -8 20 1.5
      vertex -8 30 0
    endloop
  endfacet
  facet normal -1 -0 0
    outer loop
      vertex -8 16.5192 4.63415
      vertex -8 10 0
      vertex -8 16.5192 5.36585
    endloop
  endfacet
  facet normal -1 -0 0
    outer loop
      vertex -8 16.6713 3.91844
      vertex -8 10 0
      vertex -8 16.5192 4.63415
    endloop
  endfacet
  facet normal -1 -0 0
    outer loop
      vertex -8 16.9689 3.25
      vertex -8 10 0
      vertex -8 16.6713 3.91844
    endloop
  endfacet
  facet normal -1 -0 0
    outer loop
      vertex -8 17.399 2.65804
      vertex -8 10 0
      vertex -8 16.9689 3.25
    endloop
  endfacet
  facet normal -1 -0 0
    outer loop
      vertex -8 17.9428 2.16844
      vertex -8 10 0
      vertex -8 17.399 2.65804
    endloop
  endfacet
  facet normal -1 -0 0
    outer loop
      vertex -8 18.5764 1.80259
      vertex -8 10 0
      vertex -8 17.9428 2.16844
    endloop
  endfacet
  facet normal -1 -0 0
    outer loop
      vertex -8 19.2723 1.57648
      vertex -8 10 0
      vertex -8 18.5764 1.80259
    endloop
  endfacet
  facet normal -1 -0 0
    outer loop
      vertex -8 20 1.5
      vertex -8 10 0
      vertex -8 19.2723 1.57648
    endloop
  endfacet
  facet normal -1 0 0
    outer loop
      vertex -8 23.4808 5.36585
      vertex -8 30 10
      vertex -8 23.4808 4.63415
    endloop
  endfacet
  facet normal -1 0 0
    outer loop
      vertex -8 23.3287 6.08156
      vertex -8 30 10
      vertex -8 23.4808 5.36585
    endloop
  endfacet
  facet normal -1 0 0
    outer loop
      vertex -8 23.0311 6.75
      vertex -8 30 10
      vertex -8 23.3287 6.08156
    endloop
  endfacet
  facet normal -1 0 0
    outer loop
      vertex -8 22.601 7.34196
      vertex -8 30 10
      vertex -8 23.0311 6.75
    endloop
  endfacet
  facet normal -1 0 0
    outer loop
      vertex -8 22.0572 7.83156
      vertex -8 30 10
      vertex -8 22.601 7.34196
    endloop
  endfacet
  facet normal -1 0 0
    outer loop
      vertex -8 21.4236 8.19741
      vertex -8 30 10
      vertex -8 22.0572 7.83156
    endloop
  endfacet
  facet normal -1 0 0
    outer loop
      vertex -8 20.7277 8.42352
      vertex -8 30 10
      vertex -8 21.4236 8.19741
    endloop
  endfacet
  facet normal -1 0 0
    outer loop
      vertex -8 20 8.5
      vertex -8 30 10
      vertex -8 20.7277 8.42352
    endloop
  endfacet
  facet normal -1 0 0
    outer loop
      vertex -8 10 10
      vertex -8 20 8.5
      vertex -8 19.2723 8.42352
    endloop
  endfacet
  facet normal -1 0 0
    outer loop
      vertex -8 10 10
      vertex -8 16.5192 5.36585
      vertex -8 10 0
    endloop
  endfacet
  facet normal -1 0 0
    outer loop
      vertex -8 16.5192 5.36585
      vertex -8 10 10
      vertex -8 16.6713 6.08156
    endloop
  endfacet
  facet normal -1 0 0
    outer loop
      vertex -8 16.6713 6.08156
      vertex -8 10 10
      vertex -8 16.9689 6.75
    endloop
  endfacet
  facet normal -1 0 0
    outer loop
      vertex -8 20 8.5
      vertex -8 10 10
      vertex -8 30 10
    endloop
  endfacet
  facet normal -1 0 0
    outer loop
      vertex -8 18.5764 8.19741
      vertex -8 10 10
      vertex -8 19.2723 8.42352
    endloop
  endfacet
  facet normal -1 0 0
    outer loop
      vertex -8 17.9428 7.83156
      vertex -8 10 10
      vertex -8 18.5764 8.19741
    endloop
  endfacet
  facet normal -1 0 0
    outer loop
      vertex -8 17.399 7.34196
      vertex -8 10 10
      vertex -8 17.9428 7.83156
    endloop
  endfacet
  facet normal -1 0 0
    outer loop
      vertex -8 16.9689 6.75
      vertex -8 10 10
      vertex -8 17.399 7.34196
    endloop
  endfacet
  facet normal -0.19502 0.980799 0
    outer loop
      vertex -1.25148 37.9015 0
      vertex -1.86756 37.779 10
      vertex -1.25148 37.9015 10
    endloop
  endfacet
  facet normal -0.19502 0.980799 0
    outer loop
      vertex -1.86756 37.779 10
      vertex -1.25148 37.9015 0
      vertex -1.86756 37.779 0
    endloop
  endfacet
  facet normal -0.785314 0.619098 0
    outer loop
      vertex -6.47214 34.7023 0
      vertex -6.08325 35.1956 10
      vertex -6.08325 35.1956 0
    endloop
  endfacet
  facet normal -0.785314 0.619098 0
    outer loop
      vertex -6.08325 35.1956 10
      vertex -6.47214 34.7023 0
      vertex -6.47214 34.7023 10
    endloop
  endfacet
  facet normal -0.0393213 0.999227 0
    outer loop
      vertex 0 38 0
      vertex -0.627672 37.9753 10
      vertex 0 38 10
    endloop
  endfacet
  facet normal -0.0393213 0.999227 0
    outer loop
      vertex -0.627672 37.9753 10
      vertex 0 38 0
      vertex -0.627672 37.9753 0
    endloop
  endfacet
  facet normal -0.418553 0.908192 0
    outer loop
      vertex -3.06147 37.391 0
      vertex -3.63192 37.1281 10
      vertex -3.06147 37.391 10
    endloop
  endfacet
  facet normal -0.418553 0.908192 0
    outer loop
      vertex -3.63192 37.1281 10
      vertex -3.06147 37.391 0
      vertex -3.63192 37.1281 0
    endloop
  endfacet
  facet normal -0.488701 0.872451 0
    outer loop
      vertex -3.63192 37.1281 0
      vertex -4.17999 36.8211 10
      vertex -3.63192 37.1281 10
    endloop
  endfacet
  facet normal -0.488701 0.872451 0
    outer loop
      vertex -4.17999 36.8211 10
      vertex -3.63192 37.1281 0
      vertex -4.17999 36.8211 0
    endloop
  endfacet
  facet normal -0.734339 0.678782 0
    outer loop
      vertex -6.08325 35.1956 0
      vertex -5.65685 35.6569 10
      vertex -5.65685 35.6569 0
    endloop
  endfacet
  facet normal -0.734339 0.678782 0
    outer loop
      vertex -5.65685 35.6569 10
      vertex -6.08325 35.1956 0
      vertex -6.08325 35.1956 10
    endloop
  endfacet
  facet normal -0.999229 0.039256 0
    outer loop
      vertex -8 30 0
      vertex -7.97534 30.6277 10
      vertex -7.97534 30.6277 0
    endloop
  endfacet
  facet normal -0.999229 0.039256 0
    outer loop
      vertex -7.97534 30.6277 10
      vertex -8 30 0
      vertex -8 30 10
    endloop
  endfacet
  facet normal -0.993069 0.117535 0
    outer loop
      vertex -7.97534 30.6277 0
      vertex -7.90151 31.2515 10
      vertex -7.90151 31.2515 0
    endloop
  endfacet
  facet normal -0.993069 0.117535 0
    outer loop
      vertex -7.90151 31.2515 10
      vertex -7.97534 30.6277 0
      vertex -7.97534 30.6277 10
    endloop
  endfacet
  facet normal -0.346236 0.938148 0
    outer loop
      vertex -2.47214 37.6085 0
      vertex -3.06147 37.391 10
      vertex -2.47214 37.6085 10
    endloop
  endfacet
  facet normal -0.346236 0.938148 0
    outer loop
      vertex -3.06147 37.391 10
      vertex -2.47214 37.6085 0
      vertex -3.06147 37.391 0
    endloop
  endfacet
  facet normal -0.117486 0.993075 0
    outer loop
      vertex -0.627672 37.9753 0
      vertex -1.25148 37.9015 10
      vertex -0.627672 37.9753 10
    endloop
  endfacet
  facet normal -0.117486 0.993075 0
    outer loop
      vertex -1.25148 37.9015 10
      vertex -0.627672 37.9753 0
      vertex -1.25148 37.9015 0
    endloop
  endfacet
  facet normal -0.962446 0.271475 0
    outer loop
      vertex -7.77896 31.8676 0
      vertex -7.60845 32.4721 10
      vertex -7.60845 32.4721 0
    endloop
  endfacet
  facet normal -0.962446 0.271475 0
    outer loop
      vertex -7.60845 32.4721 10
      vertex -7.77896 31.8676 0
      vertex -7.77896 31.8676 10
    endloop
  endfacet
  facet normal -0.831477 0.55556 0
    outer loop
      vertex -6.82112 34.18 0
      vertex -6.47214 34.7023 10
      vertex -6.47214 34.7023 0
    endloop
  endfacet
  facet normal -0.831477 0.55556 0
    outer loop
      vertex -6.47214 34.7023 10
      vertex -6.82112 34.18 0
      vertex -6.82112 34.18 10
    endloop
  endfacet
  facet normal -0.87251 0.488596 0
    outer loop
      vertex -7.12805 33.6319 0
      vertex -6.82112 34.18 10
      vertex -6.82112 34.18 0
    endloop
  endfacet
  facet normal -0.87251 0.488596 0
    outer loop
      vertex -6.82112 34.18 10
      vertex -7.12805 33.6319 0
      vertex -7.12805 33.6319 10
    endloop
  endfacet
  facet normal -0.619107 0.785306 0
    outer loop
      vertex -4.70228 36.4721 0
      vertex -5.19558 36.0832 10
      vertex -4.70228 36.4721 10
    endloop
  endfacet
  facet normal -0.619107 0.785306 0
    outer loop
      vertex -5.19558 36.0832 10
      vertex -4.70228 36.4721 0
      vertex -5.19558 36.0832 0
    endloop
  endfacet
  facet normal -0.67872 0.734397 0
    outer loop
      vertex -5.19558 36.0832 0
      vertex -5.65685 35.6569 10
      vertex -5.19558 36.0832 10
    endloop
  endfacet
  facet normal -0.67872 0.734397 0
    outer loop
      vertex -5.65685 35.6569 10
      vertex -5.19558 36.0832 0
      vertex -5.65685 35.6569 0
    endloop
  endfacet
  facet normal -0.908124 0.418702 0
    outer loop
      vertex -7.39104 33.0615 0
      vertex -7.12805 33.6319 10
      vertex -7.12805 33.6319 0
    endloop
  endfacet
  facet normal -0.908124 0.418702 0
    outer loop
      vertex -7.12805 33.6319 10
      vertex -7.39104 33.0615 0
      vertex -7.39104 33.0615 10
    endloop
  endfacet
  facet normal -0.980785 0.19509 0
    outer loop
      vertex -7.90151 31.2515 0
      vertex -7.77896 31.8676 10
      vertex -7.77896 31.8676 0
    endloop
  endfacet
  facet normal -0.980785 0.19509 0
    outer loop
      vertex -7.77896 31.8676 10
      vertex -7.90151 31.2515 0
      vertex -7.90151 31.2515 10
    endloop
  endfacet
  facet normal -0.555589 0.831457 0
    outer loop
      vertex -4.17999 36.8211 0
      vertex -4.70228 36.4721 10
      vertex -4.17999 36.8211 10
    endloop
  endfacet
  facet normal -0.555589 0.831457 0
    outer loop
      vertex -4.70228 36.4721 10
      vertex -4.17999 36.8211 0
      vertex -4.70228 36.4721 0
    endloop
  endfacet
  facet normal -0.938207 0.346073 0
    outer loop
      vertex -7.60845 32.4721 0
      vertex -7.39104 33.0615 10
      vertex -7.39104 33.0615 0
    endloop
  endfacet
  facet normal -0.938207 0.346073 0
    outer loop
      vertex -7.39104 33.0615 10
      vertex -7.60845 32.4721 0
      vertex -7.60845 32.4721 10
    endloop
  endfacet
  facet normal -0.271427 0.962459 0
    outer loop
      vertex -1.86756 37.779 0
      vertex -2.47214 37.6085 10
      vertex -1.86756 37.779 10
    endloop
  endfacet
  facet normal -0.271427 0.962459 0
    outer loop
      vertex -2.47214 37.6085 10
      vertex -1.86756 37.779 0
      vertex -2.47214 37.6085 0
    endloop
  endfacet
  facet normal 0.587733 -0.809055 0
    outer loop
      vertex -2.61344 13.1591 0
      vertex -2.19689 13.4617 10
      vertex -2.61344 13.1591 10
    endloop
  endfacet
  facet normal 0.587733 -0.809055 0
    outer loop
      vertex -2.19689 13.4617 10
      vertex -2.61344 13.1591 0
      vertex -2.19689 13.4617 0
    endloop
  endfacet
  facet normal 0.844326 0.535829 0
    outer loop
      vertex -3.31697 7.59008 10
      vertex -3.59286 8.02481 0
      vertex -3.59286 8.02481 10
    endloop
  endfacet
  facet normal 0.844326 0.535829 0
    outer loop
      vertex -3.59286 8.02481 0
      vertex -3.31697 7.59008 10
      vertex -3.31697 7.59008 0
    endloop
  endfacet
  facet normal 0.12533 0.992115 -0
    outer loop
      vertex -0.257441 5.90809 0
      vertex -0.768263 5.97262 10
      vertex -0.257441 5.90809 10
    endloop
  endfacet
  facet normal 0.12533 0.992115 0
    outer loop
      vertex -0.768263 5.97262 10
      vertex -0.257441 5.90809 0
      vertex -0.768263 5.97262 0
    endloop
  endfacet
  facet normal 0.68459 -0.728928 0
    outer loop
      vertex -2.98877 12.8066 0
      vertex -2.61344 13.1591 10
      vertex -2.98877 12.8066 10
    endloop
  endfacet
  facet normal 0.68459 -0.728928 0
    outer loop
      vertex -2.61344 13.1591 10
      vertex -2.98877 12.8066 0
      vertex -2.61344 13.1591 0
    endloop
  endfacet
  facet normal 0.248788 -0.968558 0
    outer loop
      vertex -1.26697 13.8993 0
      vertex -0.768263 14.0274 10
      vertex -1.26697 13.8993 10
    endloop
  endfacet
  facet normal 0.248788 -0.968558 0
    outer loop
      vertex -0.768263 14.0274 10
      vertex -1.26697 13.8993 0
      vertex -0.768263 14.0274 0
    endloop
  endfacet
  facet normal 0.904832 0.425769 0
    outer loop
      vertex -3.59286 8.02481 10
      vertex -3.81208 8.49069 0
      vertex -3.81208 8.49069 10
    endloop
  endfacet
  facet normal 0.904832 0.425769 0
    outer loop
      vertex -3.81208 8.49069 0
      vertex -3.59286 8.02481 10
      vertex -3.59286 8.02481 0
    endloop
  endfacet
  facet normal 0.36806 -0.929802 0
    outer loop
      vertex -1.74569 13.7098 0
      vertex -1.26697 13.8993 10
      vertex -1.74569 13.7098 10
    endloop
  endfacet
  facet normal 0.36806 -0.929802 0
    outer loop
      vertex -1.26697 13.8993 10
      vertex -1.74569 13.7098 0
      vertex -1.26697 13.8993 0
    endloop
  endfacet
  facet normal 0.248697 0.968581 -0
    outer loop
      vertex -0.768263 5.97262 0
      vertex -1.26697 6.10067 10
      vertex -0.768263 5.97262 10
    endloop
  endfacet
  facet normal 0.248697 0.968581 0
    outer loop
      vertex -1.26697 6.10067 10
      vertex -0.768263 5.97262 0
      vertex -1.26697 6.10067 0
    endloop
  endfacet
  facet normal 0.684549 0.728967 -0
    outer loop
      vertex -2.61344 6.8409 0
      vertex -2.98877 7.19336 10
      vertex -2.61344 6.8409 10
    endloop
  endfacet
  facet normal 0.684549 0.728967 0
    outer loop
      vertex -2.98877 7.19336 10
      vertex -2.61344 6.8409 0
      vertex -2.98877 7.19336 0
    endloop
  endfacet
  facet normal 0.481829 -0.876265 0
    outer loop
      vertex -2.19689 13.4617 0
      vertex -1.74569 13.7098 10
      vertex -2.19689 13.4617 10
    endloop
  endfacet
  facet normal 0.481829 -0.876265 0
    outer loop
      vertex -1.74569 13.7098 10
      vertex -2.19689 13.4617 0
      vertex -1.74569 13.7098 0
    endloop
  endfacet
  facet normal 0.951055 0.309023 0
    outer loop
      vertex -3.81208 8.49069 10
      vertex -3.97119 8.98037 0
      vertex -3.97119 8.98037 10
    endloop
  endfacet
  facet normal 0.951055 0.309023 0
    outer loop
      vertex -3.97119 8.98037 0
      vertex -3.81208 8.49069 10
      vertex -3.81208 8.49069 0
    endloop
  endfacet
  facet normal 0.770493 -0.637448 0
    outer loop
      vertex -3.31697 12.4099 10
      vertex -2.98877 12.8066 0
      vertex -2.98877 12.8066 10
    endloop
  endfacet
  facet normal 0.770493 -0.637448 0
    outer loop
      vertex -2.98877 12.8066 0
      vertex -3.31697 12.4099 10
      vertex -3.31697 12.4099 0
    endloop
  endfacet
  facet normal 0.904839 -0.425754 0
    outer loop
      vertex -3.81208 11.5093 10
      vertex -3.59286 11.9752 0
      vertex -3.59286 11.9752 10
    endloop
  endfacet
  facet normal 0.904839 -0.425754 0
    outer loop
      vertex -3.59286 11.9752 0
      vertex -3.81208 11.5093 10
      vertex -3.81208 11.5093 0
    endloop
  endfacet
  facet normal 0 1 -0
    outer loop
      vertex 0 5.90809 0
      vertex -0.257441 5.90809 10
      vertex 0 5.90809 10
    endloop
  endfacet
  facet normal 0 1 0
    outer loop
      vertex -0.257441 5.90809 10
      vertex 0 5.90809 0
      vertex -0.257441 5.90809 0
    endloop
  endfacet
  facet normal 0.982283 -0.187405 0
    outer loop
      vertex -4.06767 10.5139 10
      vertex -3.97119 11.0196 0
      vertex -3.97119 11.0196 10
    endloop
  endfacet
  facet normal 0.982283 -0.187405 0
    outer loop
      vertex -3.97119 11.0196 0
      vertex -4.06767 10.5139 10
      vertex -4.06767 10.5139 0
    endloop
  endfacet
  facet normal 0.587796 0.809009 -0
    outer loop
      vertex -2.19689 6.53825 0
      vertex -2.61344 6.8409 10
      vertex -2.19689 6.53825 10
    endloop
  endfacet
  facet normal 0.587796 0.809009 0
    outer loop
      vertex -2.61344 6.8409 10
      vertex -2.19689 6.53825 0
      vertex -2.61344 6.8409 0
    endloop
  endfacet
  facet normal 0 -1 0
    outer loop
      vertex -0.257441 14.0919 0
      vertex 0 14.0919 10
      vertex -0.257441 14.0919 10
    endloop
  endfacet
  facet normal 0 -1 -0
    outer loop
      vertex 0 14.0919 10
      vertex -0.257441 14.0919 0
      vertex 0 14.0919 0
    endloop
  endfacet
  facet normal 0.982287 0.187383 0
    outer loop
      vertex -3.97119 8.98037 10
      vertex -4.06767 9.48613 0
      vertex -4.06767 9.48613 10
    endloop
  endfacet
  facet normal 0.982287 0.187383 0
    outer loop
      vertex -4.06767 9.48613 0
      vertex -3.97119 8.98037 10
      vertex -3.97119 8.98037 0
    endloop
  endfacet
  facet normal 0.770509 0.637429 0
    outer loop
      vertex -2.98877 7.19336 10
      vertex -3.31697 7.59008 0
      vertex -3.31697 7.59008 10
    endloop
  endfacet
  facet normal 0.770509 0.637429 0
    outer loop
      vertex -3.31697 7.59008 0
      vertex -2.98877 7.19336 10
      vertex -2.98877 7.19336 0
    endloop
  endfacet
  facet normal 0.125272 -0.992122 0
    outer loop
      vertex -0.768263 14.0274 0
      vertex -0.257441 14.0919 10
      vertex -0.768263 14.0274 10
    endloop
  endfacet
  facet normal 0.125272 -0.992122 0
    outer loop
      vertex -0.257441 14.0919 10
      vertex -0.768263 14.0274 0
      vertex -0.257441 14.0919 0
    endloop
  endfacet
  facet normal 0.998027 -0.0627869 0
    outer loop
      vertex -4.1 10 10
      vertex -4.06767 10.5139 0
      vertex -4.06767 10.5139 10
    endloop
  endfacet
  facet normal 0.998027 -0.0627869 0
    outer loop
      vertex -4.06767 10.5139 0
      vertex -4.1 10 10
      vertex -4.1 10 0
    endloop
  endfacet
  facet normal 0.951058 -0.309011 0
    outer loop
      vertex -3.97119 11.0196 10
      vertex -3.81208 11.5093 0
      vertex -3.81208 11.5093 10
    endloop
  endfacet
  facet normal 0.951058 -0.309011 0
    outer loop
      vertex -3.81208 11.5093 0
      vertex -3.97119 11.0196 10
      vertex -3.97119 11.0196 0
    endloop
  endfacet
  facet normal 0.998027 0.0627906 0
    outer loop
      vertex -4.06767 9.48613 10
      vertex -4.1 10 0
      vertex -4.1 10 10
    endloop
  endfacet
  facet normal 0.998027 0.0627906 0
    outer loop
      vertex -4.1 10 0
      vertex -4.06767 9.48613 10
      vertex -4.06767 9.48613 0
    endloop
  endfacet
  facet normal 0.844309 -0.535856 0
    outer loop
      vertex -3.59286 11.9752 10
      vertex -3.31697 12.4099 0
      vertex -3.31697 12.4099 10
    endloop
  endfacet
  facet normal 0.844309 -0.535856 0
    outer loop
      vertex -3.31697 12.4099 0
      vertex -3.59286 11.9752 10
      vertex -3.59286 11.9752 0
    endloop
  endfacet
  facet normal 0.48174 0.876314 -0
    outer loop
      vertex -1.74569 6.29021 0
      vertex -2.19689 6.53825 10
      vertex -1.74569 6.29021 10
    endloop
  endfacet
  facet normal 0.48174 0.876314 0
    outer loop
      vertex -2.19689 6.53825 10
      vertex -1.74569 6.29021 0
      vertex -2.19689 6.53825 0
    endloop
  endfacet
  facet normal 0.368127 0.929776 -0
    outer loop
      vertex -1.26697 6.10067 0
      vertex -1.74569 6.29021 10
      vertex -1.26697 6.10067 10
    endloop
  endfacet
  facet normal 0.368127 0.929776 0
    outer loop
      vertex -1.74569 6.29021 10
      vertex -1.26697 6.10067 0
      vertex -1.74569 6.29021 0
    endloop
  endfacet
  facet normal 0.36806 -0.929802 0
    outer loop
      vertex -1.74569 33.7098 0
      vertex -1.26697 33.8993 10
      vertex -1.74569 33.7098 10
    endloop
  endfacet
  facet normal 0.36806 -0.929802 0
    outer loop
      vertex -1.26697 33.8993 10
      vertex -1.74569 33.7098 0
      vertex -1.26697 33.8993 0
    endloop
  endfacet
  facet normal 0.248788 0.968558 -0
    outer loop
      vertex -0.768263 25.9726 0
      vertex -1.26697 26.1007 10
      vertex -0.768263 25.9726 10
    endloop
  endfacet
  facet normal 0.248788 0.968558 0
    outer loop
      vertex -1.26697 26.1007 10
      vertex -0.768263 25.9726 0
      vertex -1.26697 26.1007 0
    endloop
  endfacet
  facet normal 0.982283 0.187405 0
    outer loop
      vertex -3.97119 28.9804 10
      vertex -4.06767 29.4861 0
      vertex -4.06767 29.4861 10
    endloop
  endfacet
  facet normal 0.982283 0.187405 0
    outer loop
      vertex -4.06767 29.4861 0
      vertex -3.97119 28.9804 10
      vertex -3.97119 28.9804 0
    endloop
  endfacet
  facet normal 0.904839 0.425754 0
    outer loop
      vertex -3.59286 28.0248 10
      vertex -3.81208 28.4907 0
      vertex -3.81208 28.4907 10
    endloop
  endfacet
  facet normal 0.904839 0.425754 0
    outer loop
      vertex -3.81208 28.4907 0
      vertex -3.59286 28.0248 10
      vertex -3.59286 28.0248 0
    endloop
  endfacet
  facet normal 0.481829 0.876265 -0
    outer loop
      vertex -1.74569 26.2902 0
      vertex -2.19689 26.5383 10
      vertex -1.74569 26.2902 10
    endloop
  endfacet
  facet normal 0.481829 0.876265 0
    outer loop
      vertex -2.19689 26.5383 10
      vertex -1.74569 26.2902 0
      vertex -2.19689 26.5383 0
    endloop
  endfacet
  facet normal 0.982283 -0.187405 0
    outer loop
      vertex -4.06767 30.5139 10
      vertex -3.97119 31.0196 0
      vertex -3.97119 31.0196 10
    endloop
  endfacet
  facet normal 0.982283 -0.187405 0
    outer loop
      vertex -3.97119 31.0196 0
      vertex -4.06767 30.5139 10
      vertex -4.06767 30.5139 0
    endloop
  endfacet
  facet normal 0.844309 0.535856 0
    outer loop
      vertex -3.31697 27.5901 10
      vertex -3.59286 28.0248 0
      vertex -3.59286 28.0248 10
    endloop
  endfacet
  facet normal 0.844309 0.535856 0
    outer loop
      vertex -3.59286 28.0248 0
      vertex -3.31697 27.5901 10
      vertex -3.31697 27.5901 0
    endloop
  endfacet
  facet normal 0.770493 0.637448 0
    outer loop
      vertex -2.98877 27.1934 10
      vertex -3.31697 27.5901 0
      vertex -3.31697 27.5901 10
    endloop
  endfacet
  facet normal 0.770493 0.637448 0
    outer loop
      vertex -3.31697 27.5901 0
      vertex -2.98877 27.1934 10
      vertex -2.98877 27.1934 0
    endloop
  endfacet
  facet normal 0.481829 -0.876265 0
    outer loop
      vertex -2.19689 33.4617 0
      vertex -1.74569 33.7098 10
      vertex -2.19689 33.4617 10
    endloop
  endfacet
  facet normal 0.481829 -0.876265 0
    outer loop
      vertex -1.74569 33.7098 10
      vertex -2.19689 33.4617 0
      vertex -1.74569 33.7098 0
    endloop
  endfacet
  facet normal 0.36806 0.929802 -0
    outer loop
      vertex -1.26697 26.1007 0
      vertex -1.74569 26.2902 10
      vertex -1.26697 26.1007 10
    endloop
  endfacet
  facet normal 0.36806 0.929802 0
    outer loop
      vertex -1.74569 26.2902 10
      vertex -1.26697 26.1007 0
      vertex -1.74569 26.2902 0
    endloop
  endfacet
  facet normal 0.587733 0.809055 -0
    outer loop
      vertex -2.19689 26.5383 0
      vertex -2.61344 26.8409 10
      vertex -2.19689 26.5383 10
    endloop
  endfacet
  facet normal 0.587733 0.809055 0
    outer loop
      vertex -2.61344 26.8409 10
      vertex -2.19689 26.5383 0
      vertex -2.61344 26.8409 0
    endloop
  endfacet
  facet normal 0.951058 0.309011 0
    outer loop
      vertex -3.81208 28.4907 10
      vertex -3.97119 28.9804 0
      vertex -3.97119 28.9804 10
    endloop
  endfacet
  facet normal 0.951058 0.309011 0
    outer loop
      vertex -3.97119 28.9804 0
      vertex -3.81208 28.4907 10
      vertex -3.81208 28.4907 0
    endloop
  endfacet
  facet normal 0.844309 -0.535856 0
    outer loop
      vertex -3.59286 31.9752 10
      vertex -3.31697 32.4099 0
      vertex -3.31697 32.4099 10
    endloop
  endfacet
  facet normal 0.844309 -0.535856 0
    outer loop
      vertex -3.31697 32.4099 0
      vertex -3.59286 31.9752 10
      vertex -3.59286 31.9752 0
    endloop
  endfacet
  facet normal 0 -1 0
    outer loop
      vertex -0.257441 34.0919 0
      vertex 0 34.0919 10
      vertex -0.257441 34.0919 10
    endloop
  endfacet
  facet normal 0 -1 -0
    outer loop
      vertex 0 34.0919 10
      vertex -0.257441 34.0919 0
      vertex 0 34.0919 0
    endloop
  endfacet
  facet normal 0.68459 0.728928 -0
    outer loop
      vertex -2.61344 26.8409 0
      vertex -2.98877 27.1934 10
      vertex -2.61344 26.8409 10
    endloop
  endfacet
  facet normal 0.68459 0.728928 0
    outer loop
      vertex -2.98877 27.1934 10
      vertex -2.61344 26.8409 0
      vertex -2.98877 27.1934 0
    endloop
  endfacet
  facet normal 0.68459 -0.728928 0
    outer loop
      vertex -2.98877 32.8066 0
      vertex -2.61344 33.1591 10
      vertex -2.98877 32.8066 10
    endloop
  endfacet
  facet normal 0.68459 -0.728928 0
    outer loop
      vertex -2.61344 33.1591 10
      vertex -2.98877 32.8066 0
      vertex -2.61344 33.1591 0
    endloop
  endfacet
  facet normal 0.125272 -0.992122 0
    outer loop
      vertex -0.768263 34.0274 0
      vertex -0.257441 34.0919 10
      vertex -0.768263 34.0274 10
    endloop
  endfacet
  facet normal 0.125272 -0.992122 0
    outer loop
      vertex -0.257441 34.0919 10
      vertex -0.768263 34.0274 0
      vertex -0.257441 34.0919 0
    endloop
  endfacet
  facet normal 0.998027 -0.0627869 0
    outer loop
      vertex -4.1 30 10
      vertex -4.06767 30.5139 0
      vertex -4.06767 30.5139 10
    endloop
  endfacet
  facet normal 0.998027 -0.0627869 0
    outer loop
      vertex -4.06767 30.5139 0
      vertex -4.1 30 10
      vertex -4.1 30 0
    endloop
  endfacet
  facet normal 0.587733 -0.809055 0
    outer loop
      vertex -2.61344 33.1591 0
      vertex -2.19689 33.4617 10
      vertex -2.61344 33.1591 10
    endloop
  endfacet
  facet normal 0.587733 -0.809055 0
    outer loop
      vertex -2.19689 33.4617 10
      vertex -2.61344 33.1591 0
      vertex -2.19689 33.4617 0
    endloop
  endfacet
  facet normal 0 1 -0
    outer loop
      vertex 0 25.9081 0
      vertex -0.257441 25.9081 10
      vertex 0 25.9081 10
    endloop
  endfacet
  facet normal 0 1 0
    outer loop
      vertex -0.257441 25.9081 10
      vertex 0 25.9081 0
      vertex -0.257441 25.9081 0
    endloop
  endfacet
  facet normal 0.998027 0.0627869 0
    outer loop
      vertex -4.06767 29.4861 10
      vertex -4.1 30 0
      vertex -4.1 30 10
    endloop
  endfacet
  facet normal 0.998027 0.0627869 0
    outer loop
      vertex -4.1 30 0
      vertex -4.06767 29.4861 10
      vertex -4.06767 29.4861 0
    endloop
  endfacet
  facet normal 0.248788 -0.968558 0
    outer loop
      vertex -1.26697 33.8993 0
      vertex -0.768263 34.0274 10
      vertex -1.26697 33.8993 10
    endloop
  endfacet
  facet normal 0.248788 -0.968558 0
    outer loop
      vertex -0.768263 34.0274 10
      vertex -1.26697 33.8993 0
      vertex -0.768263 34.0274 0
    endloop
  endfacet
  facet normal 0.125272 0.992122 -0
    outer loop
      vertex -0.257441 25.9081 0
      vertex -0.768263 25.9726 10
      vertex -0.257441 25.9081 10
    endloop
  endfacet
  facet normal 0.125272 0.992122 0
    outer loop
      vertex -0.768263 25.9726 10
      vertex -0.257441 25.9081 0
      vertex -0.768263 25.9726 0
    endloop
  endfacet
  facet normal 0.904839 -0.425754 0
    outer loop
      vertex -3.81208 31.5093 10
      vertex -3.59286 31.9752 0
      vertex -3.59286 31.9752 10
    endloop
  endfacet
  facet normal 0.904839 -0.425754 0
    outer loop
      vertex -3.59286 31.9752 0
      vertex -3.81208 31.5093 10
      vertex -3.81208 31.5093 0
    endloop
  endfacet
  facet normal 0.951058 -0.309011 0
    outer loop
      vertex -3.97119 31.0196 10
      vertex -3.81208 31.5093 0
      vertex -3.81208 31.5093 10
    endloop
  endfacet
  facet normal 0.951058 -0.309011 0
    outer loop
      vertex -3.81208 31.5093 0
      vertex -3.97119 31.0196 10
      vertex -3.97119 31.0196 0
    endloop
  endfacet
  facet normal 0.770493 -0.637448 0
    outer loop
      vertex -3.31697 32.4099 10
      vertex -2.98877 32.8066 0
      vertex -2.98877 32.8066 10
    endloop
  endfacet
  facet normal 0.770493 -0.637448 0
    outer loop
      vertex -2.98877 32.8066 0
      vertex -3.31697 32.4099 10
      vertex -3.31697 32.4099 0
    endloop
  endfacet
  facet normal 0 0.453977 -0.891014
    outer loop
      vertex -5 18.942 6.45623
      vertex 0 19.4438 6.7119
      vertex 0 18.942 6.45623
    endloop
  endfacet
  facet normal 0 0.453977 -0.891014
    outer loop
      vertex 0 19.4438 6.7119
      vertex -5 18.942 6.45623
      vertex -5 19.4438 6.7119
    endloop
  endfacet
  facet normal 0 -0.987688 -0.156438
    outer loop
      vertex -5 21.8 5
      vertex 0 21.7119 5.55623
      vertex -5 21.7119 5.55623
    endloop
  endfacet
  facet normal 0 -0.987688 -0.156438
    outer loop
      vertex 0 21.7119 5.55623
      vertex -5 21.8 5
      vertex 0 21.8 5
    endloop
  endfacet
  facet normal 0 -0.156446 0.987687
    outer loop
      vertex -5 20.5562 3.2881
      vertex 0 20 3.2
      vertex 0 20.5562 3.2881
    endloop
  endfacet
  facet normal 0 -0.156446 0.987687
    outer loop
      vertex 0 20 3.2
      vertex -5 20.5562 3.2881
      vertex -5 20 3.2
    endloop
  endfacet
  facet normal 0 0.707125 0.707089
    outer loop
      vertex 0 18.942 3.54377
      vertex -5 18.5438 3.94199
      vertex 0 18.5438 3.94199
    endloop
  endfacet
  facet normal 0 0.707125 0.707089
    outer loop
      vertex -5 18.5438 3.94199
      vertex 0 18.942 3.54377
      vertex -5 18.942 3.54377
    endloop
  endfacet
  facet normal 0 0.987688 -0.156438
    outer loop
      vertex 0 18.2 5
      vertex -5 18.2881 5.55623
      vertex 0 18.2881 5.55623
    endloop
  endfacet
  facet normal 0 0.987688 -0.156438
    outer loop
      vertex -5 18.2881 5.55623
      vertex 0 18.2 5
      vertex -5 18.2 5
    endloop
  endfacet
  facet normal 0 0.987688 0.156438
    outer loop
      vertex 0 18.2881 4.44377
      vertex -5 18.2 5
      vertex 0 18.2 5
    endloop
  endfacet
  facet normal 0 0.987688 0.156438
    outer loop
      vertex -5 18.2 5
      vertex 0 18.2881 4.44377
      vertex -5 18.2881 4.44377
    endloop
  endfacet
  facet normal -0 0.156446 0.987687
    outer loop
      vertex -5 20 3.2
      vertex 0 19.4438 3.2881
      vertex 0 20 3.2
    endloop
  endfacet
  facet normal 0 0.156446 0.987687
    outer loop
      vertex 0 19.4438 3.2881
      vertex -5 20 3.2
      vertex -5 19.4438 3.2881
    endloop
  endfacet
  facet normal 0 0.890985 -0.454033
    outer loop
      vertex 0 18.2881 5.55623
      vertex -5 18.5438 6.05801
      vertex 0 18.5438 6.05801
    endloop
  endfacet
  facet normal 0 0.890985 -0.454033
    outer loop
      vertex -5 18.5438 6.05801
      vertex 0 18.2881 5.55623
      vertex -5 18.2881 5.55623
    endloop
  endfacet
  facet normal 0 -0.987688 0.156438
    outer loop
      vertex -5 21.7119 4.44377
      vertex 0 21.8 5
      vertex -5 21.8 5
    endloop
  endfacet
  facet normal 0 -0.987688 0.156438
    outer loop
      vertex 0 21.8 5
      vertex -5 21.7119 4.44377
      vertex 0 21.7119 4.44377
    endloop
  endfacet
  facet normal 0 -0.453977 -0.891014
    outer loop
      vertex -5 20.5562 6.7119
      vertex 0 21.058 6.45623
      vertex 0 20.5562 6.7119
    endloop
  endfacet
  facet normal -0 -0.453977 -0.891014
    outer loop
      vertex 0 21.058 6.45623
      vertex -5 20.5562 6.7119
      vertex -5 21.058 6.45623
    endloop
  endfacet
  facet normal 0 -0.890985 -0.454033
    outer loop
      vertex -5 21.7119 5.55623
      vertex 0 21.4562 6.05801
      vertex -5 21.4562 6.05801
    endloop
  endfacet
  facet normal 0 -0.890985 -0.454033
    outer loop
      vertex 0 21.4562 6.05801
      vertex -5 21.7119 5.55623
      vertex 0 21.7119 5.55623
    endloop
  endfacet
  facet normal 0 -0.453977 0.891014
    outer loop
      vertex -5 21.058 3.54377
      vertex 0 20.5562 3.2881
      vertex 0 21.058 3.54377
    endloop
  endfacet
  facet normal 0 -0.453977 0.891014
    outer loop
      vertex 0 20.5562 3.2881
      vertex -5 21.058 3.54377
      vertex -5 20.5562 3.2881
    endloop
  endfacet
  facet normal 0 0.890985 0.454033
    outer loop
      vertex 0 18.5438 3.94199
      vertex -5 18.2881 4.44377
      vertex 0 18.2881 4.44377
    endloop
  endfacet
  facet normal 0 0.890985 0.454033
    outer loop
      vertex -5 18.2881 4.44377
      vertex 0 18.5438 3.94199
      vertex -5 18.5438 3.94199
    endloop
  endfacet
  facet normal -0 0.453977 0.891014
    outer loop
      vertex -5 19.4438 3.2881
      vertex 0 18.942 3.54377
      vertex 0 19.4438 3.2881
    endloop
  endfacet
  facet normal 0 0.453977 0.891014
    outer loop
      vertex 0 18.942 3.54377
      vertex -5 19.4438 3.2881
      vertex -5 18.942 3.54377
    endloop
  endfacet
  facet normal 0 -0.890985 0.454033
    outer loop
      vertex -5 21.4562 3.94199
      vertex 0 21.7119 4.44377
      vertex -5 21.7119 4.44377
    endloop
  endfacet
  facet normal 0 -0.890985 0.454033
    outer loop
      vertex 0 21.7119 4.44377
      vertex -5 21.4562 3.94199
      vertex 0 21.4562 3.94199
    endloop
  endfacet
  facet normal 0 0.156446 -0.987687
    outer loop
      vertex -5 19.4438 6.7119
      vertex 0 20 6.8
      vertex 0 19.4438 6.7119
    endloop
  endfacet
  facet normal 0 0.156446 -0.987687
    outer loop
      vertex 0 20 6.8
      vertex -5 19.4438 6.7119
      vertex -5 20 6.8
    endloop
  endfacet
  facet normal 0 -0.156446 -0.987687
    outer loop
      vertex -5 20 6.8
      vertex 0 20.5562 6.7119
      vertex 0 20 6.8
    endloop
  endfacet
  facet normal -0 -0.156446 -0.987687
    outer loop
      vertex 0 20.5562 6.7119
      vertex -5 20 6.8
      vertex -5 20.5562 6.7119
    endloop
  endfacet
  facet normal 0 -0.707125 0.707089
    outer loop
      vertex -5 21.058 3.54377
      vertex 0 21.4562 3.94199
      vertex -5 21.4562 3.94199
    endloop
  endfacet
  facet normal 0 -0.707125 0.707089
    outer loop
      vertex 0 21.4562 3.94199
      vertex -5 21.058 3.54377
      vertex 0 21.058 3.54377
    endloop
  endfacet
  facet normal 0 0.707125 -0.707089
    outer loop
      vertex 0 18.5438 6.05801
      vertex -5 18.942 6.45623
      vertex 0 18.942 6.45623
    endloop
  endfacet
  facet normal 0 0.707125 -0.707089
    outer loop
      vertex -5 18.942 6.45623
      vertex 0 18.5438 6.05801
      vertex -5 18.5438 6.05801
    endloop
  endfacet
  facet normal 0 -0.707125 -0.707089
    outer loop
      vertex -5 21.4562 6.05801
      vertex 0 21.058 6.45623
      vertex -5 21.058 6.45623
    endloop
  endfacet
  facet normal 0 -0.707125 -0.707089
    outer loop
      vertex 0 21.058 6.45623
      vertex -5 21.4562 6.05801
      vertex 0 21.4562 6.05801
    endloop
  endfacet
  facet normal 0 0.91355 -0.406727
    outer loop
      vertex -5 16.6713 6.08156
      vertex -8 16.9689 6.75
      vertex -5 16.9689 6.75
    endloop
  endfacet
  facet normal 0 0.91355 -0.406727
    outer loop
      vertex -8 16.9689 6.75
      vertex -5 16.6713 6.08156
      vertex -8 16.6713 6.08156
    endloop
  endfacet
  facet normal 0 -0.500042 0.866001
    outer loop
      vertex -8 22.0572 2.16844
      vertex -5 21.4236 1.80259
      vertex -5 22.0572 2.16844
    endloop
  endfacet
  facet normal 0 -0.500042 0.866001
    outer loop
      vertex -5 21.4236 1.80259
      vertex -8 22.0572 2.16844
      vertex -8 21.4236 1.80259
    endloop
  endfacet
  facet normal -0 0.104523 0.994523
    outer loop
      vertex -8 20 1.5
      vertex -5 19.2723 1.57648
      vertex -5 20 1.5
    endloop
  endfacet
  facet normal 0 0.104523 0.994523
    outer loop
      vertex -5 19.2723 1.57648
      vertex -8 20 1.5
      vertex -8 19.2723 1.57648
    endloop
  endfacet
  facet normal 0 -0.809007 0.587799
    outer loop
      vertex -8 22.601 2.65804
      vertex -5 23.0311 3.25
      vertex -8 23.0311 3.25
    endloop
  endfacet
  facet normal 0 -0.809007 0.587799
    outer loop
      vertex -5 23.0311 3.25
      vertex -8 22.601 2.65804
      vertex -5 22.601 2.65804
    endloop
  endfacet
  facet normal 0 -0.91355 0.406727
    outer loop
      vertex -8 23.0311 3.25
      vertex -5 23.3287 3.91844
      vertex -8 23.3287 3.91844
    endloop
  endfacet
  facet normal 0 -0.91355 0.406727
    outer loop
      vertex -5 23.3287 3.91844
      vertex -8 23.0311 3.25
      vertex -5 23.0311 3.25
    endloop
  endfacet
  facet normal 0 -0.669101 0.743172
    outer loop
      vertex -8 22.601 2.65804
      vertex -5 22.0572 2.16844
      vertex -5 22.601 2.65804
    endloop
  endfacet
  facet normal 0 -0.669101 0.743172
    outer loop
      vertex -5 22.0572 2.16844
      vertex -8 22.601 2.65804
      vertex -8 22.0572 2.16844
    endloop
  endfacet
  facet normal 0 -0.809007 -0.587799
    outer loop
      vertex -8 23.0311 6.75
      vertex -5 22.601 7.34196
      vertex -8 22.601 7.34196
    endloop
  endfacet
  facet normal 0 -0.809007 -0.587799
    outer loop
      vertex -5 22.601 7.34196
      vertex -8 23.0311 6.75
      vertex -5 23.0311 6.75
    endloop
  endfacet
  facet normal 0 0.809007 -0.587799
    outer loop
      vertex -5 16.9689 6.75
      vertex -8 17.399 7.34196
      vertex -5 17.399 7.34196
    endloop
  endfacet
  facet normal 0 0.809007 -0.587799
    outer loop
      vertex -8 17.399 7.34196
      vertex -5 16.9689 6.75
      vertex -8 16.9689 6.75
    endloop
  endfacet
  facet normal 0 -0.104523 0.994523
    outer loop
      vertex -8 20.7277 1.57648
      vertex -5 20 1.5
      vertex -5 20.7277 1.57648
    endloop
  endfacet
  facet normal 0 -0.104523 0.994523
    outer loop
      vertex -5 20 1.5
      vertex -8 20.7277 1.57648
      vertex -8 20 1.5
    endloop
  endfacet
  facet normal 0 0.978156 0.207874
    outer loop
      vertex -5 16.6713 3.91844
      vertex -8 16.5192 4.63415
      vertex -5 16.5192 4.63415
    endloop
  endfacet
  facet normal 0 0.978156 0.207874
    outer loop
      vertex -8 16.5192 4.63415
      vertex -5 16.6713 3.91844
      vertex -8 16.6713 3.91844
    endloop
  endfacet
  facet normal 0 -0.978156 -0.207874
    outer loop
      vertex -8 23.4808 5.36585
      vertex -5 23.3287 6.08156
      vertex -8 23.3287 6.08156
    endloop
  endfacet
  facet normal 0 -0.978156 -0.207874
    outer loop
      vertex -5 23.3287 6.08156
      vertex -8 23.4808 5.36585
      vertex -5 23.4808 5.36585
    endloop
  endfacet
  facet normal 0 -0.104523 -0.994523
    outer loop
      vertex -8 20 8.5
      vertex -5 20.7277 8.42352
      vertex -5 20 8.5
    endloop
  endfacet
  facet normal -0 -0.104523 -0.994523
    outer loop
      vertex -5 20.7277 8.42352
      vertex -8 20 8.5
      vertex -8 20.7277 8.42352
    endloop
  endfacet
  facet normal 0 0.809007 0.587799
    outer loop
      vertex -5 17.399 2.65804
      vertex -8 16.9689 3.25
      vertex -5 16.9689 3.25
    endloop
  endfacet
  facet normal 0 0.809007 0.587799
    outer loop
      vertex -8 16.9689 3.25
      vertex -5 17.399 2.65804
      vertex -8 17.399 2.65804
    endloop
  endfacet
  facet normal 0 0.500042 -0.866001
    outer loop
      vertex -8 17.9428 7.83156
      vertex -5 18.5764 8.19741
      vertex -5 17.9428 7.83156
    endloop
  endfacet
  facet normal 0 0.500042 -0.866001
    outer loop
      vertex -5 18.5764 8.19741
      vertex -8 17.9428 7.83156
      vertex -8 18.5764 8.19741
    endloop
  endfacet
  facet normal 0 0.91355 0.406727
    outer loop
      vertex -5 16.9689 3.25
      vertex -8 16.6713 3.91844
      vertex -5 16.6713 3.91844
    endloop
  endfacet
  facet normal 0 0.91355 0.406727
    outer loop
      vertex -8 16.6713 3.91844
      vertex -5 16.9689 3.25
      vertex -8 16.9689 3.25
    endloop
  endfacet
  facet normal 0 -0.309015 -0.951057
    outer loop
      vertex -8 20.7277 8.42352
      vertex -5 21.4236 8.19741
      vertex -5 20.7277 8.42352
    endloop
  endfacet
  facet normal -0 -0.309015 -0.951057
    outer loop
      vertex -5 21.4236 8.19741
      vertex -8 20.7277 8.42352
      vertex -8 21.4236 8.19741
    endloop
  endfacet
  facet normal -0 0.309015 0.951057
    outer loop
      vertex -8 19.2723 1.57648
      vertex -5 18.5764 1.80259
      vertex -5 19.2723 1.57648
    endloop
  endfacet
  facet normal 0 0.309015 0.951057
    outer loop
      vertex -5 18.5764 1.80259
      vertex -8 19.2723 1.57648
      vertex -8 18.5764 1.80259
    endloop
  endfacet
  facet normal 0 -0.309015 0.951057
    outer loop
      vertex -8 21.4236 1.80259
      vertex -5 20.7277 1.57648
      vertex -5 21.4236 1.80259
    endloop
  endfacet
  facet normal 0 -0.309015 0.951057
    outer loop
      vertex -5 20.7277 1.57648
      vertex -8 21.4236 1.80259
      vertex -8 20.7277 1.57648
    endloop
  endfacet
  facet normal 0 -0.669101 -0.743172
    outer loop
      vertex -8 22.0572 7.83156
      vertex -5 22.601 7.34196
      vertex -5 22.0572 7.83156
    endloop
  endfacet
  facet normal -0 -0.669101 -0.743172
    outer loop
      vertex -5 22.601 7.34196
      vertex -8 22.0572 7.83156
      vertex -8 22.601 7.34196
    endloop
  endfacet
  facet normal 0 -1 0
    outer loop
      vertex -8 23.4808 4.63415
      vertex -5 23.4808 5.36585
      vertex -8 23.4808 5.36585
    endloop
  endfacet
  facet normal 0 -1 -0
    outer loop
      vertex -5 23.4808 5.36585
      vertex -8 23.4808 4.63415
      vertex -5 23.4808 4.63415
    endloop
  endfacet
  facet normal -0 0.500042 0.866001
    outer loop
      vertex -8 18.5764 1.80259
      vertex -5 17.9428 2.16844
      vertex -5 18.5764 1.80259
    endloop
  endfacet
  facet normal 0 0.500042 0.866001
    outer loop
      vertex -5 17.9428 2.16844
      vertex -8 18.5764 1.80259
      vertex -8 17.9428 2.16844
    endloop
  endfacet
  facet normal 0 0.309015 -0.951057
    outer loop
      vertex -8 18.5764 8.19741
      vertex -5 19.2723 8.42352
      vertex -5 18.5764 8.19741
    endloop
  endfacet
  facet normal 0 0.309015 -0.951057
    outer loop
      vertex -5 19.2723 8.42352
      vertex -8 18.5764 8.19741
      vertex -8 19.2723 8.42352
    endloop
  endfacet
  facet normal -0 0.669101 0.743172
    outer loop
      vertex -8 17.9428 2.16844
      vertex -5 17.399 2.65804
      vertex -5 17.9428 2.16844
    endloop
  endfacet
  facet normal 0 0.669101 0.743172
    outer loop
      vertex -5 17.399 2.65804
      vertex -8 17.9428 2.16844
      vertex -8 17.399 2.65804
    endloop
  endfacet
  facet normal 0 -0.91355 -0.406727
    outer loop
      vertex -8 23.3287 6.08156
      vertex -5 23.0311 6.75
      vertex -8 23.0311 6.75
    endloop
  endfacet
  facet normal 0 -0.91355 -0.406727
    outer loop
      vertex -5 23.0311 6.75
      vertex -8 23.3287 6.08156
      vertex -5 23.3287 6.08156
    endloop
  endfacet
  facet normal 0 1 -0
    outer loop
      vertex -5 16.5192 4.63415
      vertex -8 16.5192 5.36585
      vertex -5 16.5192 5.36585
    endloop
  endfacet
  facet normal 0 1 0
    outer loop
      vertex -8 16.5192 5.36585
      vertex -5 16.5192 4.63415
      vertex -8 16.5192 4.63415
    endloop
  endfacet
  facet normal -1 0 0
    outer loop
      vertex -5 21.7119 4.44377
      vertex -5 23.4808 4.63415
      vertex -5 23.3287 3.91844
    endloop
  endfacet
  facet normal -1 0 0
    outer loop
      vertex -5 23.4808 4.63415
      vertex -5 21.8 5
      vertex -5 23.4808 5.36585
    endloop
  endfacet
  facet normal -1 0 0
    outer loop
      vertex -5 21.7119 4.44377
      vertex -5 23.3287 3.91844
      vertex -5 23.0311 3.25
    endloop
  endfacet
  facet normal -1 0 0
    outer loop
      vertex -5 21.7119 5.55623
      vertex -5 23.4808 5.36585
      vertex -5 21.8 5
    endloop
  endfacet
  facet normal -1 0 0
    outer loop
      vertex -5 21.4562 3.94199
      vertex -5 23.0311 3.25
      vertex -5 22.601 2.65804
    endloop
  endfacet
  facet normal -1 0 0
    outer loop
      vertex -5 23.4808 5.36585
      vertex -5 21.7119 5.55623
      vertex -5 23.3287 6.08156
    endloop
  endfacet
  facet normal -1 0 0
    outer loop
      vertex -5 21.058 3.54377
      vertex -5 22.601 2.65804
      vertex -5 22.0572 2.16844
    endloop
  endfacet
  facet normal -1 -0 0
    outer loop
      vertex -5 23.3287 6.08156
      vertex -5 21.7119 5.55623
      vertex -5 23.0311 6.75
    endloop
  endfacet
  facet normal -1 0 0
    outer loop
      vertex -5 21.4562 6.05801
      vertex -5 23.0311 6.75
      vertex -5 21.7119 5.55623
    endloop
  endfacet
  facet normal -1 -0 0
    outer loop
      vertex -5 23.4808 4.63415
      vertex -5 21.7119 4.44377
      vertex -5 21.8 5
    endloop
  endfacet
  facet normal -1 0 0
    outer loop
      vertex -5 23.0311 3.25
      vertex -5 21.4562 3.94199
      vertex -5 21.7119 4.44377
    endloop
  endfacet
  facet normal -1 0 0
    outer loop
      vertex -5 21.058 3.54377
      vertex -5 22.0572 2.16844
      vertex -5 21.4236 1.80259
    endloop
  endfacet
  facet normal -1 0 0
    outer loop
      vertex -5 22.601 2.65804
      vertex -5 21.058 3.54377
      vertex -5 21.4562 3.94199
    endloop
  endfacet
  facet normal -1 0 0
    outer loop
      vertex -5 20.5562 3.2881
      vertex -5 21.4236 1.80259
      vertex -5 20.7277 1.57648
    endloop
  endfacet
  facet normal -1 0 0
    outer loop
      vertex -5 21.4236 1.80259
      vertex -5 20.5562 3.2881
      vertex -5 21.058 3.54377
    endloop
  endfacet
  facet normal -1 0 0
    outer loop
      vertex -5 20 3.2
      vertex -5 20.7277 1.57648
      vertex -5 20 1.5
    endloop
  endfacet
  facet normal -1 0 0
    outer loop
      vertex -5 20.7277 1.57648
      vertex -5 20 3.2
      vertex -5 20.5562 3.2881
    endloop
  endfacet
  facet normal -1 0 0
    outer loop
      vertex -5 19.2723 1.57648
      vertex -5 20 3.2
      vertex -5 20 1.5
    endloop
  endfacet
  facet normal -1 -0 0
    outer loop
      vertex -5 20 3.2
      vertex -5 19.2723 1.57648
      vertex -5 19.4438 3.2881
    endloop
  endfacet
  facet normal -1 0 0
    outer loop
      vertex -5 18.5764 1.80259
      vertex -5 19.4438 3.2881
      vertex -5 19.2723 1.57648
    endloop
  endfacet
  facet normal -1 -0 0
    outer loop
      vertex -5 19.4438 3.2881
      vertex -5 18.5764 1.80259
      vertex -5 18.942 3.54377
    endloop
  endfacet
  facet normal -1 0 0
    outer loop
      vertex -5 17.9428 2.16844
      vertex -5 18.942 3.54377
      vertex -5 18.5764 1.80259
    endloop
  endfacet
  facet normal -1 0 0
    outer loop
      vertex -5 17.399 2.65804
      vertex -5 18.942 3.54377
      vertex -5 17.9428 2.16844
    endloop
  endfacet
  facet normal -1 -0 0
    outer loop
      vertex -5 18.942 3.54377
      vertex -5 17.399 2.65804
      vertex -5 18.5438 3.94199
    endloop
  endfacet
  facet normal -1 0 0
    outer loop
      vertex -5 16.9689 3.25
      vertex -5 18.5438 3.94199
      vertex -5 17.399 2.65804
    endloop
  endfacet
  facet normal -1 -0 0
    outer loop
      vertex -5 23.0311 6.75
      vertex -5 21.4562 6.05801
      vertex -5 22.601 7.34196
    endloop
  endfacet
  facet normal -1 0 0
    outer loop
      vertex -5 21.058 6.45623
      vertex -5 22.601 7.34196
      vertex -5 21.4562 6.05801
    endloop
  endfacet
  facet normal -1 -0 0
    outer loop
      vertex -5 22.601 7.34196
      vertex -5 21.058 6.45623
      vertex -5 22.0572 7.83156
    endloop
  endfacet
  facet normal -1 -0 0
    outer loop
      vertex -5 22.0572 7.83156
      vertex -5 21.058 6.45623
      vertex -5 21.4236 8.19741
    endloop
  endfacet
  facet normal -1 0 0
    outer loop
      vertex -5 20.5562 6.7119
      vertex -5 21.4236 8.19741
      vertex -5 21.058 6.45623
    endloop
  endfacet
  facet normal -1 -0 0
    outer loop
      vertex -5 21.4236 8.19741
      vertex -5 20.5562 6.7119
      vertex -5 20.7277 8.42352
    endloop
  endfacet
  facet normal -1 0 0
    outer loop
      vertex -5 20 6.8
      vertex -5 20.7277 8.42352
      vertex -5 20.5562 6.7119
    endloop
  endfacet
  facet normal -1 0 0
    outer loop
      vertex -5 20 6.8
      vertex -5 20 8.5
      vertex -5 20.7277 8.42352
    endloop
  endfacet
  facet normal -1 0 0
    outer loop
      vertex -5 19.2723 8.42352
      vertex -5 20 6.8
      vertex -5 19.4438 6.7119
    endloop
  endfacet
  facet normal -1 0 0
    outer loop
      vertex -5 20 6.8
      vertex -5 19.2723 8.42352
      vertex -5 20 8.5
    endloop
  endfacet
  facet normal -1 0 0
    outer loop
      vertex -5 18.5764 8.19741
      vertex -5 19.4438 6.7119
      vertex -5 18.942 6.45623
    endloop
  endfacet
  facet normal -1 0 0
    outer loop
      vertex -5 19.4438 6.7119
      vertex -5 18.5764 8.19741
      vertex -5 19.2723 8.42352
    endloop
  endfacet
  facet normal -1 0 0
    outer loop
      vertex -5 17.399 7.34196
      vertex -5 18.942 6.45623
      vertex -5 18.5438 6.05801
    endloop
  endfacet
  facet normal -1 0 0
    outer loop
      vertex -5 16.9689 6.75
      vertex -5 18.5438 6.05801
      vertex -5 18.2881 5.55623
    endloop
  endfacet
  facet normal -1 0 0
    outer loop
      vertex -5 16.5192 5.36585
      vertex -5 18.2881 5.55623
      vertex -5 18.2 5
    endloop
  endfacet
  facet normal -1 0 0
    outer loop
      vertex -5 18.942 6.45623
      vertex -5 17.9428 7.83156
      vertex -5 18.5764 8.19741
    endloop
  endfacet
  facet normal -1 -0 0
    outer loop
      vertex -5 18.5438 3.94199
      vertex -5 16.9689 3.25
      vertex -5 18.2881 4.44377
    endloop
  endfacet
  facet normal -1 0 0
    outer loop
      vertex -5 16.6713 3.91844
      vertex -5 18.2881 4.44377
      vertex -5 16.9689 3.25
    endloop
  endfacet
  facet normal -1 0 0
    outer loop
      vertex -5 18.942 6.45623
      vertex -5 17.399 7.34196
      vertex -5 17.9428 7.83156
    endloop
  endfacet
  facet normal -1 0 0
    outer loop
      vertex -5 16.5192 4.63415
      vertex -5 18.2881 4.44377
      vertex -5 16.6713 3.91844
    endloop
  endfacet
  facet normal -1 0 0
    outer loop
      vertex -5 18.5438 6.05801
      vertex -5 16.9689 6.75
      vertex -5 17.399 7.34196
    endloop
  endfacet
  facet normal -1 0 0
    outer loop
      vertex -5 18.2881 4.44377
      vertex -5 16.5192 4.63415
      vertex -5 18.2 5
    endloop
  endfacet
  facet normal -1 0 0
    outer loop
      vertex -5 18.2881 5.55623
      vertex -5 16.6713 6.08156
      vertex -5 16.9689 6.75
    endloop
  endfacet
  facet normal -1 0 0
    outer loop
      vertex -5 16.5192 5.36585
      vertex -5 18.2 5
      vertex -5 16.5192 4.63415
    endloop
  endfacet
  facet normal -1 -0 0
    outer loop
      vertex -5 18.2881 5.55623
      vertex -5 16.5192 5.36585
      vertex -5 16.6713 6.08156
    endloop
  endfacet
  facet normal 0 0.978156 -0.207874
    outer loop
      vertex -5 16.5192 5.36585
      vertex -8 16.6713 6.08156
      vertex -5 16.6713 6.08156
    endloop
  endfacet
  facet normal 0 0.978156 -0.207874
    outer loop
      vertex -8 16.6713 6.08156
      vertex -5 16.5192 5.36585
      vertex -8 16.5192 5.36585
    endloop
  endfacet
  facet normal 0 0.669101 -0.743172
    outer loop
      vertex -8 17.399 7.34196
      vertex -5 17.9428 7.83156
      vertex -5 17.399 7.34196
    endloop
  endfacet
  facet normal 0 0.669101 -0.743172
    outer loop
      vertex -5 17.9428 7.83156
      vertex -8 17.399 7.34196
      vertex -8 17.9428 7.83156
    endloop
  endfacet
  facet normal 0 -0.978156 0.207874
    outer loop
      vertex -8 23.3287 3.91844
      vertex -5 23.4808 4.63415
      vertex -8 23.4808 4.63415
    endloop
  endfacet
  facet normal 0 -0.978156 0.207874
    outer loop
      vertex -5 23.4808 4.63415
      vertex -8 23.3287 3.91844
      vertex -5 23.3287 3.91844
    endloop
  endfacet
  facet normal 0 0.104523 -0.994523
    outer loop
      vertex -8 19.2723 8.42352
      vertex -5 20 8.5
      vertex -5 19.2723 8.42352
    endloop
  endfacet
  facet normal 0 0.104523 -0.994523
    outer loop
      vertex -5 20 8.5
      vertex -8 19.2723 8.42352
      vertex -8 20 8.5
    endloop
  endfacet
  facet normal 0 -0.500042 -0.866001
    outer loop
      vertex -8 21.4236 8.19741
      vertex -5 22.0572 7.83156
      vertex -5 21.4236 8.19741
    endloop
  endfacet
  facet normal -0 -0.500042 -0.866001
    outer loop
      vertex -5 22.0572 7.83156
      vertex -8 21.4236 8.19741
      vertex -8 22.0572 7.83156
    endloop
  endfacet
  facet normal 1 -0 0
    outer loop
      vertex 0 34.0919 10
      vertex 0 38 0
      vertex 0 38 10
    endloop
  endfacet
  facet normal 1 0 0
    outer loop
      vertex 0 38 0
      vertex 0 34.0919 10
      vertex 0 34.0919 0
    endloop
  endfacet
  facet normal 1 -0 0
    outer loop
      vertex 0 2 10
      vertex 0 5.90809 0
      vertex 0 5.90809 10
    endloop
  endfacet
  facet normal 1 0 0
    outer loop
      vertex 0 5.90809 0
      vertex 0 2 10
      vertex 0 2 0
    endloop
  endfacet
  facet normal 1 0 0
    outer loop
      vertex 0 25.9081 10
      vertex 0 21.8 5
      vertex 0 25.9081 0
    endloop
  endfacet
  facet normal 1 0 0
    outer loop
      vertex 0 25.9081 10
      vertex 0 21.7119 5.55623
      vertex 0 21.8 5
    endloop
  endfacet
  facet normal 1 0 0
    outer loop
      vertex 0 25.9081 10
      vertex 0 21.4562 6.05801
      vertex 0 21.7119 5.55623
    endloop
  endfacet
  facet normal 1 0 0
    outer loop
      vertex 0 25.9081 10
      vertex 0 21.058 6.45623
      vertex 0 21.4562 6.05801
    endloop
  endfacet
  facet normal 1 0 0
    outer loop
      vertex 0 25.9081 10
      vertex 0 20.5562 6.7119
      vertex 0 21.058 6.45623
    endloop
  endfacet
  facet normal 1 0 0
    outer loop
      vertex 0 25.9081 10
      vertex 0 20 6.8
      vertex 0 20.5562 6.7119
    endloop
  endfacet
  facet normal 1 -0 0
    outer loop
      vertex 0 14.0919 10
      vertex 0 20 6.8
      vertex 0 25.9081 10
    endloop
  endfacet
  facet normal 1 0 0
    outer loop
      vertex 0 18.2881 5.55623
      vertex 0 14.0919 10
      vertex 0 18.2 5
    endloop
  endfacet
  facet normal 1 0 0
    outer loop
      vertex 0 18.5438 6.05801
      vertex 0 14.0919 10
      vertex 0 18.2881 5.55623
    endloop
  endfacet
  facet normal 1 0 0
    outer loop
      vertex 0 18.942 6.45623
      vertex 0 14.0919 10
      vertex 0 18.5438 6.05801
    endloop
  endfacet
  facet normal 1 0 0
    outer loop
      vertex 0 19.4438 6.7119
      vertex 0 14.0919 10
      vertex 0 18.942 6.45623
    endloop
  endfacet
  facet normal 1 0 0
    outer loop
      vertex 0 20 6.8
      vertex 0 14.0919 10
      vertex 0 19.4438 6.7119
    endloop
  endfacet
  facet normal 1 -0 0
    outer loop
      vertex 0 21.7119 4.44377
      vertex 0 25.9081 0
      vertex 0 21.8 5
    endloop
  endfacet
  facet normal 1 -0 0
    outer loop
      vertex 0 21.4562 3.94199
      vertex 0 25.9081 0
      vertex 0 21.7119 4.44377
    endloop
  endfacet
  facet normal 1 -0 0
    outer loop
      vertex 0 21.058 3.54377
      vertex 0 25.9081 0
      vertex 0 21.4562 3.94199
    endloop
  endfacet
  facet normal 1 -0 0
    outer loop
      vertex 0 20.5562 3.2881
      vertex 0 25.9081 0
      vertex 0 21.058 3.54377
    endloop
  endfacet
  facet normal 1 -0 0
    outer loop
      vertex 0 20 3.2
      vertex 0 25.9081 0
      vertex 0 20.5562 3.2881
    endloop
  endfacet
  facet normal 1 0 0
    outer loop
      vertex 0 14.0919 0
      vertex 0 20 3.2
      vertex 0 19.4438 3.2881
    endloop
  endfacet
  facet normal 1 0 0
    outer loop
      vertex 0 14.0919 0
      vertex 0 18.2 5
      vertex 0 14.0919 10
    endloop
  endfacet
  facet normal 1 0 0
    outer loop
      vertex 0 18.2 5
      vertex 0 14.0919 0
      vertex 0 18.2881 4.44377
    endloop
  endfacet
  facet normal 1 0 0
    outer loop
      vertex 0 20 3.2
      vertex 0 14.0919 0
      vertex 0 25.9081 0
    endloop
  endfacet
  facet normal 1 0 0
    outer loop
      vertex 0 18.942 3.54377
      vertex 0 14.0919 0
      vertex 0 19.4438 3.2881
    endloop
  endfacet
  facet normal 1 0 0
    outer loop
      vertex 0 18.5438 3.94199
      vertex 0 14.0919 0
      vertex 0 18.942 3.54377
    endloop
  endfacet
  facet normal 1 0 0
    outer loop
      vertex 0 18.2881 4.44377
      vertex 0 14.0919 0
      vertex 0 18.5438 3.94199
    endloop
  endfacet
endsolid OpenSCAD_Model
